<svg xmlns="http://www.w3.org/2000/svg" xmlns:xlink="http://www.w3.org/1999/xlink" width="325" zoomAndPan="magnify" viewBox="0 0 243.75 164.249993" height="219" preserveAspectRatio="xMidYMid meet" version="1.0"><defs><g/></defs><g fill="#fdfdfd" fill-opacity="1"><g transform="translate(17.371177, 66.948289)"><g><path d="M 22.015625 0 C 15.503906 0.644531 10.613281 -0.296875 7.34375 -2.828125 C 4.070312 -5.367188 2.210938 -9.929688 1.765625 -16.515625 C 1.609375 -18.628906 1.644531 -20.554688 1.875 -22.296875 C 2.101562 -24.035156 2.3125 -25.945312 2.5 -28.03125 C 2.726562 -30.40625 3.351562 -32.335938 4.375 -33.828125 C 5.394531 -35.328125 6.675781 -36.460938 8.21875 -37.234375 C 9.769531 -38.015625 11.425781 -38.566406 13.1875 -38.890625 C 14.945312 -39.210938 16.660156 -39.410156 18.328125 -39.484375 C 19.460938 -39.523438 20.765625 -39.445312 22.234375 -39.25 C 23.710938 -39.0625 25.148438 -38.613281 26.546875 -37.90625 C 29.085938 -36.613281 30.410156 -34.738281 30.515625 -32.28125 C 30.597656 -31.257812 30.421875 -30.519531 29.984375 -30.0625 C 29.546875 -29.613281 29.050781 -29.367188 28.5 -29.328125 C 27.957031 -29.296875 27.570312 -29.351562 27.34375 -29.5 C 26.851562 -29.769531 26.519531 -30.242188 26.34375 -30.921875 C 26.175781 -31.597656 26.035156 -32.109375 25.921875 -32.453125 C 25.285156 -34.117188 23.945312 -34.988281 21.90625 -35.0625 C 20.6875 -35.0625 19.753906 -34.65625 19.109375 -33.84375 C 18.472656 -33.03125 18.019531 -32.046875 17.75 -30.890625 C 17.488281 -29.734375 17.335938 -28.664062 17.296875 -27.6875 C 17.222656 -26.289062 17.140625 -24.898438 17.046875 -23.515625 C 16.953125 -22.140625 16.925781 -20.734375 16.96875 -19.296875 C 16.882812 -16.222656 16.941406 -13.046875 17.140625 -9.765625 C 17.242188 -8.960938 17.503906 -8.144531 17.921875 -7.3125 C 18.335938 -6.488281 18.953125 -5.8125 19.765625 -5.28125 C 20.578125 -4.75 21.628906 -4.519531 22.921875 -4.59375 C 23.898438 -4.519531 24.726562 -4.878906 25.40625 -5.671875 C 26.09375 -6.460938 26.625 -7.597656 27 -9.078125 C 27.269531 -9.941406 27.488281 -10.769531 27.65625 -11.5625 C 27.820312 -12.363281 28.09375 -12.976562 28.46875 -13.40625 C 28.851562 -13.84375 29.484375 -13.96875 30.359375 -13.78125 C 31.148438 -13.632812 31.609375 -13.21875 31.734375 -12.53125 C 31.867188 -11.851562 31.957031 -11.304688 32 -10.890625 C 31.957031 -9.078125 31.492188 -7.375 30.609375 -5.78125 C 29.722656 -4.195312 28.53125 -2.882812 27.03125 -1.84375 C 25.539062 -0.800781 23.867188 -0.1875 22.015625 0 Z M 22.015625 0 "/></g></g></g><g fill="#fdfdfd" fill-opacity="1"><g transform="translate(51.075261, 66.948289)"><g><path d="M 6.984375 0.28125 C 5.503906 0.164062 4.382812 -0.046875 3.625 -0.359375 C 2.875 -0.679688 2.363281 -1.238281 2.09375 -2.03125 C 1.832031 -2.832031 1.703125 -3.988281 1.703125 -5.5 C 1.773438 -7.726562 1.789062 -9.976562 1.75 -12.25 C 1.71875 -14.519531 1.703125 -16.753906 1.703125 -18.953125 C 1.742188 -21.179688 1.769531 -23.484375 1.78125 -25.859375 C 1.800781 -28.242188 1.832031 -30.570312 1.875 -32.84375 C 1.90625 -34.582031 2.117188 -35.867188 2.515625 -36.703125 C 2.921875 -37.535156 3.601562 -38.082031 4.5625 -38.34375 C 5.53125 -38.613281 6.847656 -38.726562 8.515625 -38.6875 C 9.304688 -38.6875 10.179688 -38.695312 11.140625 -38.71875 C 12.109375 -38.738281 13.015625 -38.660156 13.859375 -38.484375 C 14.710938 -38.316406 15.394531 -37.96875 15.90625 -37.4375 C 16.425781 -36.914062 16.628906 -36.085938 16.515625 -34.953125 C 16.703125 -32.566406 16.890625 -30.171875 17.078125 -27.765625 C 17.265625 -25.367188 17.394531 -22.976562 17.46875 -20.59375 C 17.507812 -19.875 17.773438 -19.273438 18.265625 -18.796875 C 18.753906 -18.328125 19.359375 -18.09375 20.078125 -18.09375 C 20.765625 -18.09375 21.46875 -18.09375 22.1875 -18.09375 C 22.90625 -18.09375 23.601562 -18.078125 24.28125 -18.046875 C 25.039062 -18.046875 25.65625 -18.203125 26.125 -18.515625 C 26.59375 -18.835938 26.847656 -19.25 26.890625 -19.75 C 26.890625 -20.050781 26.898438 -20.34375 26.921875 -20.625 C 26.941406 -20.90625 26.953125 -21.179688 26.953125 -21.453125 L 27 -22.0625 L 27.125 -30.640625 C 27.082031 -32.753906 27.078125 -34.394531 27.109375 -35.5625 C 27.148438 -36.738281 27.359375 -37.550781 27.734375 -38 C 28.117188 -38.457031 28.820312 -38.6875 29.84375 -38.6875 C 30.789062 -38.6875 31.441406 -38.515625 31.796875 -38.171875 C 32.160156 -37.835938 32.378906 -37.28125 32.453125 -36.5 C 32.523438 -35.726562 32.582031 -34.679688 32.625 -33.359375 C 32.695312 -31.960938 32.75 -30.289062 32.78125 -28.34375 C 32.820312 -26.394531 32.84375 -24.453125 32.84375 -22.515625 C 32.84375 -20.585938 32.804688 -18.90625 32.734375 -17.46875 L 32.671875 -16.84375 C 32.671875 -16.539062 32.679688 -16.21875 32.703125 -15.875 C 32.722656 -15.539062 32.734375 -15.1875 32.734375 -14.8125 C 32.804688 -11.519531 32.832031 -8.898438 32.8125 -6.953125 C 32.800781 -5.003906 32.707031 -3.546875 32.53125 -2.578125 C 32.363281 -1.617188 32.0625 -0.988281 31.625 -0.6875 C 31.195312 -0.382812 30.601562 -0.234375 29.84375 -0.234375 C 28.9375 -0.234375 28.289062 -0.398438 27.90625 -0.734375 C 27.53125 -1.078125 27.3125 -1.644531 27.25 -2.4375 C 27.195312 -3.226562 27.132812 -4.269531 27.0625 -5.5625 L 26.890625 -9.765625 C 26.847656 -10.515625 26.644531 -11.144531 26.28125 -11.65625 C 25.925781 -12.164062 25.488281 -12.40625 24.96875 -12.375 C 24.28125 -12.332031 23.519531 -12.300781 22.6875 -12.28125 C 21.863281 -12.257812 20.957031 -12.25 19.96875 -12.25 C 19.25 -12.25 18.648438 -12.050781 18.171875 -11.65625 C 17.703125 -11.257812 17.453125 -10.757812 17.421875 -10.15625 C 17.453125 -7.539062 17.429688 -5.476562 17.359375 -3.96875 C 17.285156 -2.457031 16.953125 -1.359375 16.359375 -0.671875 C 15.773438 0.00390625 14.753906 0.390625 13.296875 0.484375 C 11.847656 0.578125 9.742188 0.507812 6.984375 0.28125 Z M 6.984375 0.28125 "/></g></g></g><g fill="#fdfdfd" fill-opacity="1"><g transform="translate(85.630457, 66.948289)"><g><path d="M 6.984375 0.28125 C 5.503906 0.164062 4.382812 -0.046875 3.625 -0.359375 C 2.875 -0.679688 2.363281 -1.238281 2.09375 -2.03125 C 1.832031 -2.832031 1.703125 -3.988281 1.703125 -5.5 C 1.773438 -7.726562 1.789062 -9.976562 1.75 -12.25 C 1.71875 -14.519531 1.703125 -16.753906 1.703125 -18.953125 C 1.742188 -21.179688 1.769531 -23.484375 1.78125 -25.859375 C 1.800781 -28.242188 1.832031 -30.570312 1.875 -32.84375 C 1.90625 -34.582031 2.117188 -35.867188 2.515625 -36.703125 C 2.921875 -37.535156 3.601562 -38.082031 4.5625 -38.34375 C 5.53125 -38.613281 6.847656 -38.726562 8.515625 -38.6875 C 9.304688 -38.6875 10.179688 -38.695312 11.140625 -38.71875 C 12.109375 -38.738281 13.015625 -38.660156 13.859375 -38.484375 C 14.710938 -38.316406 15.394531 -37.96875 15.90625 -37.4375 C 16.425781 -36.914062 16.628906 -36.085938 16.515625 -34.953125 C 16.816406 -30.828125 17.109375 -26.703125 17.390625 -22.578125 C 17.671875 -18.453125 17.679688 -14.3125 17.421875 -10.15625 C 17.453125 -7.539062 17.429688 -5.476562 17.359375 -3.96875 C 17.285156 -2.457031 16.953125 -1.359375 16.359375 -0.671875 C 15.773438 0.00390625 14.753906 0.390625 13.296875 0.484375 C 11.847656 0.578125 9.742188 0.507812 6.984375 0.28125 Z M 6.984375 0.28125 "/></g></g></g><g fill="#fdfdfd" fill-opacity="1"><g transform="translate(104.922362, 66.948289)"><g><path d="M 20.25 -0.0625 C 18.09375 -0.0625 15.914062 -0.0390625 13.71875 0 C 11.53125 0.0390625 9.378906 -0.015625 7.265625 -0.171875 C 5.296875 -0.242188 3.929688 -0.675781 3.171875 -1.46875 C 2.421875 -2.269531 2.003906 -3.671875 1.921875 -5.671875 L 1.921875 -16.734375 C 1.921875 -16.734375 1.910156 -16.742188 1.890625 -16.765625 C 1.878906 -16.785156 1.875 -16.8125 1.875 -16.84375 L 1.875 -19.40625 C 1.90625 -20.082031 1.882812 -21.140625 1.8125 -22.578125 C 1.738281 -24.015625 1.691406 -25.695312 1.671875 -27.625 C 1.648438 -29.550781 1.734375 -31.59375 1.921875 -33.75 C 2.078125 -35.15625 2.316406 -36.1875 2.640625 -36.84375 C 2.960938 -37.507812 3.5 -37.953125 4.25 -38.171875 C 5.007812 -38.398438 6.109375 -38.535156 7.546875 -38.578125 C 8.222656 -38.617188 9.035156 -38.65625 9.984375 -38.6875 C 10.929688 -38.726562 11.859375 -38.65625 12.765625 -38.46875 C 13.671875 -38.28125 14.453125 -37.851562 15.109375 -37.1875 C 15.773438 -36.53125 16.1875 -35.519531 16.34375 -34.15625 C 16.375 -32.1875 16.410156 -30.625 16.453125 -29.46875 C 16.492188 -28.320312 16.53125 -27.367188 16.5625 -26.609375 C 16.601562 -25.847656 16.640625 -25.085938 16.671875 -24.328125 C 16.710938 -23.578125 16.734375 -22.617188 16.734375 -21.453125 C 16.734375 -20.535156 16.703125 -19.691406 16.640625 -18.921875 C 16.585938 -18.148438 16.5625 -17.570312 16.5625 -17.1875 L 16.5625 -9.140625 C 16.5625 -7.773438 16.734375 -6.875 17.078125 -6.4375 C 17.421875 -6 18.289062 -5.648438 19.6875 -5.390625 C 20.21875 -5.273438 20.753906 -5.171875 21.296875 -5.078125 C 21.847656 -4.984375 22.367188 -4.898438 22.859375 -4.828125 C 23.273438 -4.785156 23.671875 -4.765625 24.046875 -4.765625 C 24.429688 -4.765625 24.832031 -4.726562 25.25 -4.65625 C 26.457031 -4.425781 27.082031 -3.800781 27.125 -2.78125 C 27.15625 -1.800781 26.679688 -1.082031 25.703125 -0.625 C 24.796875 -0.25 23.941406 -0.0625 23.140625 -0.0625 Z M 20.25 -0.0625 "/></g></g></g><g fill="#fdfdfd" fill-opacity="1"><g transform="translate(133.746731, 66.948289)"><g><path d="M 20.25 -0.0625 C 18.09375 -0.0625 15.914062 -0.0390625 13.71875 0 C 11.53125 0.0390625 9.378906 -0.015625 7.265625 -0.171875 C 5.296875 -0.242188 3.929688 -0.675781 3.171875 -1.46875 C 2.421875 -2.269531 2.003906 -3.671875 1.921875 -5.671875 L 1.921875 -16.734375 C 1.921875 -16.734375 1.910156 -16.742188 1.890625 -16.765625 C 1.878906 -16.785156 1.875 -16.8125 1.875 -16.84375 L 1.875 -19.40625 C 1.90625 -20.082031 1.882812 -21.140625 1.8125 -22.578125 C 1.738281 -24.015625 1.691406 -25.695312 1.671875 -27.625 C 1.648438 -29.550781 1.734375 -31.59375 1.921875 -33.75 C 2.078125 -35.15625 2.316406 -36.1875 2.640625 -36.84375 C 2.960938 -37.507812 3.5 -37.953125 4.25 -38.171875 C 5.007812 -38.398438 6.109375 -38.535156 7.546875 -38.578125 C 8.222656 -38.617188 9.035156 -38.65625 9.984375 -38.6875 C 10.929688 -38.726562 11.859375 -38.65625 12.765625 -38.46875 C 13.671875 -38.28125 14.453125 -37.851562 15.109375 -37.1875 C 15.773438 -36.53125 16.1875 -35.519531 16.34375 -34.15625 C 16.375 -32.1875 16.410156 -30.625 16.453125 -29.46875 C 16.492188 -28.320312 16.53125 -27.367188 16.5625 -26.609375 C 16.601562 -25.847656 16.640625 -25.085938 16.671875 -24.328125 C 16.710938 -23.578125 16.734375 -22.617188 16.734375 -21.453125 C 16.734375 -20.535156 16.703125 -19.691406 16.640625 -18.921875 C 16.585938 -18.148438 16.5625 -17.570312 16.5625 -17.1875 L 16.5625 -9.140625 C 16.5625 -7.773438 16.734375 -6.875 17.078125 -6.4375 C 17.421875 -6 18.289062 -5.648438 19.6875 -5.390625 C 20.21875 -5.273438 20.753906 -5.171875 21.296875 -5.078125 C 21.847656 -4.984375 22.367188 -4.898438 22.859375 -4.828125 C 23.273438 -4.785156 23.671875 -4.765625 24.046875 -4.765625 C 24.429688 -4.765625 24.832031 -4.726562 25.25 -4.65625 C 26.457031 -4.425781 27.082031 -3.800781 27.125 -2.78125 C 27.15625 -1.800781 26.679688 -1.082031 25.703125 -0.625 C 24.796875 -0.25 23.941406 -0.0625 23.140625 -0.0625 Z M 20.25 -0.0625 "/></g></g></g><g fill="#fdfdfd" fill-opacity="1"><g transform="translate(162.5711, 66.948289)"><g/></g></g><g fill="#fdfdfd" fill-opacity="1"><g transform="translate(176.188909, 66.948289)"><g><path d="M 10.328125 -29.734375 C 9.835938 -29.234375 9.800781 -28.492188 10.21875 -27.515625 C 10.632812 -26.535156 11.539062 -25.382812 12.9375 -24.0625 C 13.382812 -24.625 13.769531 -25.335938 14.09375 -26.203125 C 14.414062 -27.078125 14.632812 -27.945312 14.75 -28.8125 C 14.863281 -29.6875 14.796875 -30.390625 14.546875 -30.921875 C 14.304688 -31.453125 13.851562 -31.660156 13.1875 -31.546875 C 12.53125 -31.429688 11.578125 -30.828125 10.328125 -29.734375 Z M 2.390625 -4.375 C 1.703125 -5.539062 1.519531 -6.867188 1.84375 -8.359375 C 2.164062 -9.859375 2.78125 -11.34375 3.6875 -12.8125 C 4.59375 -14.289062 5.519531 -15.597656 6.46875 -16.734375 L 8 -18.546875 L 5.78125 -20.765625 C 5.0625 -21.484375 4.425781 -22.226562 3.875 -23 C 3.332031 -23.78125 2.988281 -24.53125 2.84375 -25.25 C 2.425781 -26.832031 2.601562 -28.304688 3.375 -29.671875 C 4.144531 -31.035156 5.285156 -32.195312 6.796875 -33.15625 C 8.316406 -34.125 10.019531 -34.863281 11.90625 -35.375 C 13.800781 -35.882812 15.691406 -36.082031 17.578125 -35.96875 C 19.472656 -35.851562 21.195312 -35.398438 22.75 -34.609375 C 24.300781 -33.816406 25.484375 -32.601562 26.296875 -30.96875 C 27.109375 -29.34375 27.34375 -27.242188 27 -24.671875 C 26.96875 -23.734375 26.695312 -22.664062 26.1875 -21.46875 C 25.675781 -20.28125 24.992188 -19.128906 24.140625 -18.015625 C 23.285156 -16.898438 22.332031 -15.960938 21.28125 -15.203125 L 24.171875 -12.25 C 24.585938 -12.820312 24.945312 -13.332031 25.25 -13.78125 C 25.550781 -14.238281 25.773438 -14.65625 25.921875 -15.03125 C 26.335938 -15.863281 27.019531 -16.316406 27.96875 -16.390625 C 28.914062 -16.472656 29.691406 -16.132812 30.296875 -15.375 C 30.640625 -14.957031 30.617188 -14.039062 30.234375 -12.625 C 29.859375 -11.207031 29.273438 -9.628906 28.484375 -7.890625 L 27.75 -6.40625 C 28.425781 -5.082031 29 -3.796875 29.46875 -2.546875 C 29.945312 -1.304688 30.269531 -0.234375 30.4375 0.671875 C 30.601562 1.585938 30.554688 2.210938 30.296875 2.546875 C 29.691406 3.265625 28.914062 3.59375 27.96875 3.53125 C 27.019531 3.476562 26.335938 3.039062 25.921875 2.21875 C 25.585938 1.5 24.945312 0.515625 24 -0.734375 C 22.632812 0.285156 20.992188 1.039062 19.078125 1.53125 C 17.171875 2.019531 15.164062 2.160156 13.0625 1.953125 C 10.96875 1.742188 8.972656 1.128906 7.078125 0.109375 C 5.191406 -0.910156 3.628906 -2.40625 2.390625 -4.375 Z M 15.3125 -11 C 13.726562 -9.71875 12.773438 -8.582031 12.453125 -7.59375 C 12.128906 -6.613281 12.210938 -5.800781 12.703125 -5.15625 C 13.203125 -4.519531 13.875 -4.019531 14.71875 -3.65625 C 15.570312 -3.300781 16.421875 -3.101562 17.265625 -3.0625 C 18.117188 -3.019531 18.71875 -3.132812 19.0625 -3.40625 C 19.625 -3.820312 19.828125 -4.359375 19.671875 -5.015625 C 19.523438 -5.679688 19.175781 -6.378906 18.625 -7.109375 C 18.082031 -7.847656 17.5 -8.566406 16.875 -9.265625 C 16.25 -9.972656 15.726562 -10.550781 15.3125 -11 Z M 15.3125 -11 "/></g></g></g><g fill="#fdfdfd" fill-opacity="1"><g transform="translate(208.428441, 66.948289)"><g/></g></g><g fill="#fdfdfd" fill-opacity="1"><g transform="translate(17.371177, 127.422147)"><g><path d="M 23.203125 -0.25 C 21.429688 0.320312 19.484375 0.609375 17.359375 0.609375 C 15.242188 0.609375 13.175781 0.375 11.15625 -0.09375 C 9.144531 -0.5625 7.367188 -1.207031 5.828125 -2.03125 C 4.285156 -2.851562 3.15625 -3.78125 2.4375 -4.8125 C 1.71875 -5.84375 1.625 -6.910156 2.15625 -8.015625 C 2.445312 -8.722656 2.898438 -9.144531 3.515625 -9.28125 C 4.128906 -9.425781 4.804688 -9.382812 5.546875 -9.15625 C 6.296875 -8.9375 6.9375 -8.578125 7.46875 -8.078125 C 8.375 -7.253906 9.484375 -6.644531 10.796875 -6.25 C 12.117188 -5.863281 13.40625 -5.796875 14.65625 -6.046875 C 15.914062 -6.296875 16.875 -6.953125 17.53125 -8.015625 C 17.976562 -8.878906 18.046875 -9.660156 17.734375 -10.359375 C 17.429688 -11.066406 16.867188 -11.8125 16.046875 -12.59375 C 15.347656 -13.289062 14.441406 -14.160156 13.328125 -15.203125 C 12.222656 -16.253906 11.050781 -17.394531 9.8125 -18.625 C 8.582031 -19.863281 7.429688 -21.148438 6.359375 -22.484375 C 5.285156 -23.828125 4.410156 -25.15625 3.734375 -26.46875 C 3.054688 -27.789062 2.71875 -29.03125 2.71875 -30.1875 C 2.46875 -33.3125 3 -35.859375 4.3125 -37.828125 C 5.632812 -39.804688 7.796875 -41.375 10.796875 -42.53125 C 11.660156 -42.851562 12.894531 -43.097656 14.5 -43.265625 C 16.101562 -43.429688 17.84375 -43.472656 19.71875 -43.390625 C 21.59375 -43.304688 23.382812 -43.015625 25.09375 -42.515625 C 26.800781 -42.023438 28.164062 -41.265625 29.1875 -40.234375 C 29.882812 -39.453125 30.488281 -38.660156 31 -37.859375 C 31.519531 -37.054688 31.410156 -36.285156 30.671875 -35.546875 C 30.140625 -34.804688 29.539062 -34.5 28.875 -34.625 C 28.21875 -34.75 27.5 -35.054688 26.71875 -35.546875 C 26.71875 -35.546875 26.519531 -35.671875 26.125 -35.921875 C 25.738281 -36.171875 25.25 -36.425781 24.65625 -36.6875 C 24.0625 -36.957031 23.441406 -37.125 22.796875 -37.1875 C 22.160156 -37.25 21.554688 -37.09375 20.984375 -36.71875 C 20.453125 -36.394531 20.070312 -35.890625 19.84375 -35.203125 C 19.613281 -34.523438 19.582031 -33.59375 19.75 -32.40625 C 19.957031 -30.675781 20.820312 -28.988281 22.34375 -27.34375 C 22.59375 -27.050781 23.097656 -26.503906 23.859375 -25.703125 C 24.617188 -24.898438 25.453125 -24.023438 26.359375 -23.078125 C 27.265625 -22.128906 28.097656 -21.265625 28.859375 -20.484375 C 29.617188 -19.703125 30.097656 -19.210938 30.296875 -19.015625 C 31.867188 -17.203125 32.835938 -15.441406 33.203125 -13.734375 C 33.578125 -12.023438 33.523438 -10.421875 33.046875 -8.921875 C 32.578125 -7.421875 31.816406 -6.070312 30.765625 -4.875 C 29.710938 -3.675781 28.519531 -2.6875 27.1875 -1.90625 C 25.851562 -1.125 24.523438 -0.570312 23.203125 -0.25 Z M 23.203125 -0.25 "/></g></g></g><g fill="#fdfdfd" fill-opacity="1"><g transform="translate(53.595244, 127.422147)"><g><path d="M 12.71875 0.0625 C 11.4375 -0.0195312 10.5 -0.347656 9.90625 -0.921875 C 9.3125 -1.503906 8.742188 -2.597656 8.203125 -4.203125 C 7.585938 -5.960938 7.070312 -7.84375 6.65625 -9.84375 C 6.25 -11.84375 5.863281 -13.953125 5.5 -16.171875 C 5.125 -19.253906 4.695312 -22.242188 4.21875 -25.140625 C 3.75 -28.046875 3.164062 -30.921875 2.46875 -33.765625 C 1.976562 -35.984375 1.78125 -37.601562 1.875 -38.625 C 1.976562 -39.65625 2.21875 -40.441406 2.59375 -40.984375 C 3.25 -41.640625 4.179688 -42.066406 5.390625 -42.265625 C 6.609375 -42.472656 8.125 -42.5625 9.9375 -42.53125 C 10.019531 -42.53125 10.125 -42.53125 10.25 -42.53125 C 10.375 -42.53125 10.578125 -42.507812 10.859375 -42.46875 C 11.554688 -42.507812 12.296875 -42.507812 13.078125 -42.46875 C 14.765625 -42.300781 16 -41.875 16.78125 -41.1875 C 17.5625 -40.507812 18.179688 -39.367188 18.640625 -37.765625 C 18.765625 -37.359375 18.847656 -36.945312 18.890625 -36.53125 C 18.929688 -36.125 18.972656 -35.710938 19.015625 -35.296875 C 19.054688 -35.140625 19.078125 -34.96875 19.078125 -34.78125 C 19.078125 -34.59375 19.09375 -34.414062 19.125 -34.25 C 19.707031 -30.75 20.410156 -27.28125 21.234375 -23.84375 C 22.054688 -20.414062 22.898438 -16.972656 23.765625 -13.515625 C 24.085938 -12.773438 24.363281 -12.078125 24.59375 -11.421875 C 24.820312 -10.765625 25.035156 -10.332031 25.234375 -10.125 C 25.441406 -9.914062 25.671875 -10.097656 25.921875 -10.671875 C 26.210938 -11.578125 26.5 -12.472656 26.78125 -13.359375 C 27.070312 -14.242188 27.363281 -15.140625 27.65625 -16.046875 C 28.101562 -17.203125 28.5 -18.148438 28.84375 -18.890625 C 29.195312 -19.628906 30.015625 -19.976562 31.296875 -19.9375 C 32.203125 -19.8125 32.816406 -19.445312 33.140625 -18.84375 C 33.472656 -18.25 33.722656 -17.5625 33.890625 -16.78125 C 33.921875 -16.5 34.09375 -15.96875 34.40625 -15.1875 C 34.71875 -14.40625 35.054688 -13.582031 35.421875 -12.71875 C 36.003906 -11.519531 36.5 -10.878906 36.90625 -10.796875 C 37.320312 -10.710938 37.691406 -11.3125 38.015625 -12.59375 C 38.628906 -14.894531 39.113281 -16.753906 39.46875 -18.171875 C 39.820312 -19.597656 40.117188 -20.832031 40.359375 -21.875 C 40.609375 -22.925781 40.863281 -23.984375 41.125 -25.046875 C 41.394531 -26.117188 41.722656 -27.445312 42.109375 -29.03125 C 42.503906 -30.625 43.054688 -32.691406 43.765625 -35.234375 C 44.128906 -36.554688 44.394531 -37.609375 44.5625 -38.390625 C 44.726562 -39.171875 44.929688 -39.953125 45.171875 -40.734375 C 45.296875 -41.390625 45.613281 -41.890625 46.125 -42.234375 C 46.644531 -42.585938 47.234375 -42.6875 47.890625 -42.53125 C 49.128906 -42.320312 49.972656 -41.578125 50.421875 -40.296875 C 50.710938 -39.023438 50.507812 -37.546875 49.8125 -35.859375 C 49.5625 -34.578125 49.164062 -32.976562 48.625 -31.0625 C 48.09375 -29.15625 47.5 -27.050781 46.84375 -24.75 C 46.1875 -22.445312 45.507812 -20.082031 44.8125 -17.65625 C 44.113281 -15.226562 43.453125 -12.878906 42.828125 -10.609375 C 42.210938 -8.347656 41.71875 -6.3125 41.34375 -4.5 C 41.1875 -3.59375 40.921875 -2.664062 40.546875 -1.71875 C 40.179688 -0.78125 39.359375 -0.1875 38.078125 0.0625 C 37.210938 0.1875 36.410156 -0.109375 35.671875 -0.828125 C 34.929688 -1.546875 34.289062 -2.359375 33.75 -3.265625 C 33.21875 -4.171875 32.832031 -4.875 32.59375 -5.375 C 31.882812 -6.894531 31.304688 -7.664062 30.859375 -7.6875 C 30.410156 -7.707031 29.976562 -7.117188 29.5625 -5.921875 C 29.394531 -5.597656 29.3125 -5.3125 29.3125 -5.0625 C 28.738281 -3.582031 28.140625 -2.46875 27.515625 -1.71875 C 26.898438 -0.976562 26.128906 -0.492188 25.203125 -0.265625 C 24.285156 -0.046875 23.023438 0.0625 21.421875 0.0625 C 21.296875 0.0625 20.84375 0.0625 20.0625 0.0625 C 19.28125 0.0625 18.382812 0.0703125 17.375 0.09375 C 16.363281 0.113281 15.425781 0.125 14.5625 0.125 C 13.695312 0.125 13.082031 0.101562 12.71875 0.0625 Z M 12.71875 0.0625 "/></g></g></g><g fill="#fdfdfd" fill-opacity="1"><g transform="translate(106.913069, 127.422147)"><g><path d="M 13.078125 0 C 11.804688 -0.0820312 10.519531 -0.09375 9.21875 -0.03125 C 7.925781 0.03125 6.742188 -0.0390625 5.671875 -0.25 C 4.609375 -0.457031 3.742188 -0.953125 3.078125 -1.734375 C 2.421875 -2.515625 2.09375 -3.785156 2.09375 -5.546875 C 2.050781 -8.347656 2 -11.394531 1.9375 -14.6875 C 1.875 -17.976562 1.84375 -21.046875 1.84375 -23.890625 C 1.84375 -27.546875 1.863281 -30.535156 1.90625 -32.859375 C 1.945312 -35.191406 2.144531 -36.992188 2.5 -38.265625 C 2.851562 -39.535156 3.445312 -40.445312 4.28125 -41 C 5.125 -41.5625 6.285156 -41.882812 7.765625 -41.96875 C 9.253906 -42.050781 11.171875 -42.0625 13.515625 -42 C 15.859375 -41.9375 18.71875 -41.945312 22.09375 -42.03125 C 22.664062 -42.03125 23.375 -42.03125 24.21875 -42.03125 C 25.0625 -42.03125 25.882812 -41.96875 26.6875 -41.84375 C 27.488281 -41.71875 28.15625 -41.445312 28.6875 -41.03125 C 29.226562 -40.625 29.5 -39.96875 29.5 -39.0625 C 29.457031 -38.320312 29.15625 -37.796875 28.59375 -37.484375 C 28.039062 -37.179688 27.414062 -37.007812 26.71875 -36.96875 C 26.019531 -36.925781 25.382812 -36.882812 24.8125 -36.84375 C 24.28125 -36.757812 23.710938 -36.664062 23.109375 -36.5625 C 22.515625 -36.457031 21.929688 -36.347656 21.359375 -36.234375 C 20.367188 -36.066406 19.625 -35.847656 19.125 -35.578125 C 18.632812 -35.304688 18.316406 -34.914062 18.171875 -34.40625 C 18.023438 -33.894531 17.929688 -33.144531 17.890625 -32.15625 L 17.78125 -23.390625 C 17.695312 -21.453125 18.578125 -20.40625 20.421875 -20.25 C 20.503906 -20.207031 20.609375 -20.175781 20.734375 -20.15625 C 20.859375 -20.132812 20.941406 -20.101562 20.984375 -20.0625 C 22.140625 -20.101562 23.023438 -19.84375 23.640625 -19.28125 C 24.253906 -18.726562 24.582031 -18.09375 24.625 -17.375 C 24.664062 -16.65625 24.40625 -16.015625 23.84375 -15.453125 C 23.289062 -14.898438 22.398438 -14.625 21.171875 -14.625 C 20.515625 -14.582031 19.875 -14.425781 19.25 -14.15625 C 18.632812 -13.894531 18.285156 -13.414062 18.203125 -12.71875 C 18.117188 -10.945312 18.117188 -9.609375 18.203125 -8.703125 C 18.285156 -7.796875 18.539062 -7.144531 18.96875 -6.75 C 19.40625 -6.363281 20.097656 -6.085938 21.046875 -5.921875 C 21.992188 -5.753906 23.289062 -5.53125 24.9375 -5.25 C 25.382812 -5.207031 25.8125 -5.1875 26.21875 -5.1875 C 26.632812 -5.1875 27.050781 -5.144531 27.46875 -5.0625 C 28.332031 -4.976562 28.90625 -4.625 29.1875 -4 C 29.476562 -3.382812 29.519531 -2.75 29.3125 -2.09375 C 29.101562 -1.4375 28.628906 -0.960938 27.890625 -0.671875 C 26.984375 -0.265625 26.003906 -0.0703125 24.953125 -0.09375 C 23.910156 -0.113281 22.914062 -0.101562 21.96875 -0.0625 C 20.488281 -0.0625 19.007812 -0.0507812 17.53125 -0.03125 C 16.050781 -0.0078125 14.566406 0 13.078125 0 Z M 13.078125 0 "/></g></g></g><g fill="#fdfdfd" fill-opacity="1"><g transform="translate(138.879122, 127.422147)"><g><path d="M 13.078125 0 C 11.804688 -0.0820312 10.519531 -0.09375 9.21875 -0.03125 C 7.925781 0.03125 6.742188 -0.0390625 5.671875 -0.25 C 4.609375 -0.457031 3.742188 -0.953125 3.078125 -1.734375 C 2.421875 -2.515625 2.09375 -3.785156 2.09375 -5.546875 C 2.050781 -8.347656 2 -11.394531 1.9375 -14.6875 C 1.875 -17.976562 1.84375 -21.046875 1.84375 -23.890625 C 1.84375 -27.546875 1.863281 -30.535156 1.90625 -32.859375 C 1.945312 -35.191406 2.144531 -36.992188 2.5 -38.265625 C 2.851562 -39.535156 3.445312 -40.445312 4.28125 -41 C 5.125 -41.5625 6.285156 -41.882812 7.765625 -41.96875 C 9.253906 -42.050781 11.171875 -42.0625 13.515625 -42 C 15.859375 -41.9375 18.71875 -41.945312 22.09375 -42.03125 C 22.664062 -42.03125 23.375 -42.03125 24.21875 -42.03125 C 25.0625 -42.03125 25.882812 -41.96875 26.6875 -41.84375 C 27.488281 -41.71875 28.15625 -41.445312 28.6875 -41.03125 C 29.226562 -40.625 29.5 -39.96875 29.5 -39.0625 C 29.457031 -38.320312 29.15625 -37.796875 28.59375 -37.484375 C 28.039062 -37.179688 27.414062 -37.007812 26.71875 -36.96875 C 26.019531 -36.925781 25.382812 -36.882812 24.8125 -36.84375 C 24.28125 -36.757812 23.710938 -36.664062 23.109375 -36.5625 C 22.515625 -36.457031 21.929688 -36.347656 21.359375 -36.234375 C 20.367188 -36.066406 19.625 -35.847656 19.125 -35.578125 C 18.632812 -35.304688 18.316406 -34.914062 18.171875 -34.40625 C 18.023438 -33.894531 17.929688 -33.144531 17.890625 -32.15625 L 17.78125 -23.390625 C 17.695312 -21.453125 18.578125 -20.40625 20.421875 -20.25 C 20.503906 -20.207031 20.609375 -20.175781 20.734375 -20.15625 C 20.859375 -20.132812 20.941406 -20.101562 20.984375 -20.0625 C 22.140625 -20.101562 23.023438 -19.84375 23.640625 -19.28125 C 24.253906 -18.726562 24.582031 -18.09375 24.625 -17.375 C 24.664062 -16.65625 24.40625 -16.015625 23.84375 -15.453125 C 23.289062 -14.898438 22.398438 -14.625 21.171875 -14.625 C 20.515625 -14.582031 19.875 -14.425781 19.25 -14.15625 C 18.632812 -13.894531 18.285156 -13.414062 18.203125 -12.71875 C 18.117188 -10.945312 18.117188 -9.609375 18.203125 -8.703125 C 18.285156 -7.796875 18.539062 -7.144531 18.96875 -6.75 C 19.40625 -6.363281 20.097656 -6.085938 21.046875 -5.921875 C 21.992188 -5.753906 23.289062 -5.53125 24.9375 -5.25 C 25.382812 -5.207031 25.8125 -5.1875 26.21875 -5.1875 C 26.632812 -5.1875 27.050781 -5.144531 27.46875 -5.0625 C 28.332031 -4.976562 28.90625 -4.625 29.1875 -4 C 29.476562 -3.382812 29.519531 -2.75 29.3125 -2.09375 C 29.101562 -1.4375 28.628906 -0.960938 27.890625 -0.671875 C 26.984375 -0.265625 26.003906 -0.0703125 24.953125 -0.09375 C 23.910156 -0.113281 22.914062 -0.101562 21.96875 -0.0625 C 20.488281 -0.0625 19.007812 -0.0507812 17.53125 -0.03125 C 16.050781 -0.0078125 14.566406 0 13.078125 0 Z M 13.078125 0 "/></g></g></g><g fill="#fdfdfd" fill-opacity="1"><g transform="translate(170.845174, 127.422147)"><g><path d="M 15.375 0.3125 C 13.757812 0.1875 12.539062 -0.046875 11.71875 -0.390625 C 10.894531 -0.742188 10.335938 -1.351562 10.046875 -2.21875 C 9.765625 -3.082031 9.625 -4.335938 9.625 -5.984375 C 9.707031 -8.410156 9.726562 -10.859375 9.6875 -13.328125 C 9.644531 -15.796875 9.625 -18.222656 9.625 -20.609375 C 9.664062 -22.796875 9.6875 -25.050781 9.6875 -27.375 C 9.6875 -29.695312 9.707031 -31.988281 9.75 -34.25 C 9.789062 -34.707031 9.664062 -35.078125 9.375 -35.359375 C 9.09375 -35.648438 8.722656 -35.796875 8.265625 -35.796875 C 6.742188 -35.835938 5.507812 -35.890625 4.5625 -35.953125 C 3.613281 -36.015625 2.929688 -36.25 2.515625 -36.65625 C 2.109375 -37.070312 1.882812 -37.773438 1.84375 -38.765625 C 1.8125 -39.742188 1.9375 -40.46875 2.21875 -40.9375 C 2.507812 -41.414062 2.921875 -41.695312 3.453125 -41.78125 C 4.191406 -41.945312 5.34375 -42.0625 6.90625 -42.125 C 8.46875 -42.1875 10.15625 -42.226562 11.96875 -42.25 C 13.78125 -42.269531 15.476562 -42.269531 17.0625 -42.25 C 18.644531 -42.226562 19.828125 -42.21875 20.609375 -42.21875 C 21.191406 -42.21875 22.015625 -42.21875 23.078125 -42.21875 C 24.148438 -42.21875 25.21875 -42.21875 26.28125 -42.21875 C 27.351562 -42.21875 28.117188 -42.21875 28.578125 -42.21875 C 30.179688 -42.257812 31.300781 -42.09375 31.9375 -41.71875 C 32.570312 -41.351562 32.953125 -40.910156 33.078125 -40.390625 C 33.203125 -39.878906 33.285156 -39.4375 33.328125 -39.0625 C 33.410156 -37.914062 33.101562 -37.125 32.40625 -36.6875 C 31.707031 -36.257812 30.882812 -36.046875 29.9375 -36.046875 L 27.53125 -35.984375 C 27.070312 -35.984375 26.695312 -35.816406 26.40625 -35.484375 C 26.125 -35.160156 26.003906 -34.769531 26.046875 -34.3125 C 26.335938 -30.445312 26.582031 -26.578125 26.78125 -22.703125 C 26.988281 -18.835938 26.96875 -14.953125 26.71875 -11.046875 C 26.757812 -8.203125 26.738281 -5.957031 26.65625 -4.3125 C 26.570312 -2.664062 26.210938 -1.472656 25.578125 -0.734375 C 24.941406 0.00390625 23.832031 0.421875 22.25 0.515625 C 20.664062 0.617188 18.375 0.550781 15.375 0.3125 Z M 15.375 0.3125 "/></g></g></g><g fill="#fdfdfd" fill-opacity="1"><g transform="translate(17.235247, 148.929068)"><g/></g></g><g fill="#fdfdfd" fill-opacity="1"><g transform="translate(20.620777, 148.929068)"><g><path d="M 3.53125 0.125 C 2.894531 0.125 2.347656 -0.0195312 1.890625 -0.3125 C 1.441406 -0.613281 1.097656 -1.023438 0.859375 -1.546875 C 0.617188 -2.066406 0.5 -2.664062 0.5 -3.34375 C 0.5 -4.039062 0.625 -4.644531 0.875 -5.15625 C 1.132812 -5.675781 1.5 -6.078125 1.96875 -6.359375 C 2.4375 -6.648438 2.984375 -6.796875 3.609375 -6.796875 C 4.160156 -6.796875 4.660156 -6.664062 5.109375 -6.40625 C 5.566406 -6.144531 5.90625 -5.769531 6.125 -5.28125 L 5.3125 -4.984375 C 5.164062 -5.285156 4.941406 -5.53125 4.640625 -5.71875 C 4.347656 -5.90625 3.984375 -6 3.546875 -6 C 3.160156 -6 2.804688 -5.898438 2.484375 -5.703125 C 2.171875 -5.503906 1.921875 -5.207031 1.734375 -4.8125 C 1.546875 -4.414062 1.453125 -3.925781 1.453125 -3.34375 C 1.453125 -2.78125 1.539062 -2.300781 1.71875 -1.90625 C 1.90625 -1.507812 2.160156 -1.203125 2.484375 -0.984375 C 2.804688 -0.773438 3.171875 -0.671875 3.578125 -0.671875 C 4.015625 -0.671875 4.378906 -0.765625 4.671875 -0.953125 C 4.972656 -1.140625 5.203125 -1.382812 5.359375 -1.6875 L 6.171875 -1.390625 C 5.929688 -0.898438 5.578125 -0.523438 5.109375 -0.265625 C 4.640625 -0.00390625 4.113281 0.125 3.53125 0.125 Z M 3.53125 0.125 "/></g></g></g><g fill="#fdfdfd" fill-opacity="1"><g transform="translate(27.760929, 148.929068)"><g><path d="M 0.09375 0 L 2.609375 -6.671875 L 3.65625 -6.671875 L 6.15625 0 L 5.15625 0 L 4.640625 -1.453125 L 1.609375 -1.453125 L 1.09375 0 Z M 1.890625 -2.265625 L 4.359375 -2.265625 L 3.125 -5.734375 Z M 1.890625 -2.265625 "/></g></g></g><g fill="#fdfdfd" fill-opacity="1"><g transform="translate(34.601504, 148.929068)"><g><path d="M 0.765625 0 L 0.765625 -6.671875 L 2.578125 -6.671875 C 3.109375 -6.671875 3.59375 -6.613281 4.03125 -6.5 C 4.476562 -6.394531 4.863281 -6.210938 5.1875 -5.953125 C 5.519531 -5.703125 5.773438 -5.363281 5.953125 -4.9375 C 6.128906 -4.507812 6.21875 -3.976562 6.21875 -3.34375 C 6.21875 -2.707031 6.128906 -2.171875 5.953125 -1.734375 C 5.773438 -1.304688 5.519531 -0.960938 5.1875 -0.703125 C 4.863281 -0.453125 4.476562 -0.269531 4.03125 -0.15625 C 3.59375 -0.0507812 3.109375 0 2.578125 0 Z M 1.703125 -0.78125 L 2.5625 -0.78125 C 2.90625 -0.78125 3.238281 -0.804688 3.5625 -0.859375 C 3.882812 -0.921875 4.171875 -1.035156 4.421875 -1.203125 C 4.679688 -1.378906 4.882812 -1.640625 5.03125 -1.984375 C 5.1875 -2.328125 5.265625 -2.78125 5.265625 -3.34375 C 5.265625 -3.90625 5.1875 -4.351562 5.03125 -4.6875 C 4.882812 -5.03125 4.679688 -5.285156 4.421875 -5.453125 C 4.171875 -5.628906 3.882812 -5.742188 3.5625 -5.796875 C 3.238281 -5.847656 2.90625 -5.875 2.5625 -5.875 L 1.703125 -5.875 Z M 1.703125 -0.78125 "/></g></g></g><g fill="#fdfdfd" fill-opacity="1"><g transform="translate(41.911409, 148.929068)"><g><path d="M 0.09375 0 L 2.609375 -6.671875 L 3.65625 -6.671875 L 6.15625 0 L 5.15625 0 L 4.640625 -1.453125 L 1.609375 -1.453125 L 1.09375 0 Z M 1.890625 -2.265625 L 4.359375 -2.265625 L 3.125 -5.734375 Z M 1.890625 -2.265625 "/></g></g></g><g fill="#fdfdfd" fill-opacity="1"><g transform="translate(48.751984, 148.929068)"><g/></g></g><g fill="#fdfdfd" fill-opacity="1"><g transform="translate(52.137514, 148.929068)"><g><path d="M 2.953125 0.125 C 2.585938 0.125 2.234375 0.0664062 1.890625 -0.046875 C 1.546875 -0.160156 1.238281 -0.332031 0.96875 -0.5625 C 0.707031 -0.800781 0.519531 -1.097656 0.40625 -1.453125 L 1.265625 -1.71875 C 1.347656 -1.476562 1.476562 -1.28125 1.65625 -1.125 C 1.832031 -0.96875 2.039062 -0.851562 2.28125 -0.78125 C 2.519531 -0.707031 2.757812 -0.671875 3 -0.671875 C 3.257812 -0.671875 3.507812 -0.710938 3.75 -0.796875 C 3.988281 -0.878906 4.179688 -1.007812 4.328125 -1.1875 C 4.484375 -1.363281 4.5625 -1.585938 4.5625 -1.859375 C 4.5625 -2.128906 4.460938 -2.34375 4.265625 -2.5 C 4.066406 -2.664062 3.71875 -2.8125 3.21875 -2.9375 L 2.375 -3.125 C 2.070312 -3.207031 1.769531 -3.3125 1.46875 -3.4375 C 1.175781 -3.570312 0.929688 -3.765625 0.734375 -4.015625 C 0.546875 -4.265625 0.453125 -4.59375 0.453125 -5 C 0.453125 -5.382812 0.570312 -5.707031 0.8125 -5.96875 C 1.050781 -6.238281 1.359375 -6.441406 1.734375 -6.578125 C 2.109375 -6.722656 2.5 -6.796875 2.90625 -6.796875 C 3.21875 -6.796875 3.523438 -6.75 3.828125 -6.65625 C 4.128906 -6.5625 4.398438 -6.421875 4.640625 -6.234375 C 4.890625 -6.054688 5.082031 -5.828125 5.21875 -5.546875 L 4.359375 -5.296875 C 4.234375 -5.523438 4.03125 -5.695312 3.75 -5.8125 C 3.46875 -5.9375 3.171875 -6 2.859375 -6 C 2.617188 -6 2.390625 -5.957031 2.171875 -5.875 C 1.953125 -5.800781 1.769531 -5.6875 1.625 -5.53125 C 1.488281 -5.382812 1.421875 -5.195312 1.421875 -4.96875 C 1.421875 -4.738281 1.484375 -4.554688 1.609375 -4.421875 C 1.742188 -4.296875 1.921875 -4.191406 2.140625 -4.109375 C 2.359375 -4.035156 2.597656 -3.96875 2.859375 -3.90625 L 3.578125 -3.75 C 3.921875 -3.675781 4.242188 -3.566406 4.546875 -3.421875 C 4.847656 -3.285156 5.085938 -3.085938 5.265625 -2.828125 C 5.453125 -2.578125 5.546875 -2.238281 5.546875 -1.8125 C 5.546875 -1.507812 5.472656 -1.234375 5.328125 -0.984375 C 5.179688 -0.742188 4.984375 -0.539062 4.734375 -0.375 C 4.492188 -0.21875 4.21875 -0.09375 3.90625 0 C 3.59375 0.0820312 3.273438 0.125 2.953125 0.125 Z M 2.953125 0.125 "/></g></g></g><g fill="#fdfdfd" fill-opacity="1"><g transform="translate(58.678523, 148.929068)"><g><path d="M 0.09375 0 L 2.609375 -6.671875 L 3.65625 -6.671875 L 6.15625 0 L 5.15625 0 L 4.640625 -1.453125 L 1.609375 -1.453125 L 1.09375 0 Z M 1.890625 -2.265625 L 4.359375 -2.265625 L 3.125 -5.734375 Z M 1.890625 -2.265625 "/></g></g></g><g fill="#fdfdfd" fill-opacity="1"><g transform="translate(65.519098, 148.929068)"><g><path d="M 0.765625 0 L 0.765625 -6.671875 L 3.4375 -6.671875 C 3.925781 -6.671875 4.320312 -6.585938 4.625 -6.421875 C 4.925781 -6.265625 5.148438 -6.0625 5.296875 -5.8125 C 5.441406 -5.5625 5.515625 -5.296875 5.515625 -5.015625 C 5.515625 -4.742188 5.453125 -4.476562 5.328125 -4.21875 C 5.210938 -3.957031 5.039062 -3.734375 4.8125 -3.546875 C 5.144531 -3.367188 5.390625 -3.128906 5.546875 -2.828125 C 5.710938 -2.535156 5.796875 -2.234375 5.796875 -1.921875 C 5.796875 -1.597656 5.710938 -1.289062 5.546875 -1 C 5.390625 -0.707031 5.144531 -0.46875 4.8125 -0.28125 C 4.488281 -0.09375 4.085938 0 3.609375 0 Z M 1.703125 -3.8125 L 3.546875 -3.8125 C 3.878906 -3.8125 4.128906 -3.914062 4.296875 -4.125 C 4.472656 -4.34375 4.5625 -4.578125 4.5625 -4.828125 C 4.5625 -5.003906 4.519531 -5.171875 4.4375 -5.328125 C 4.363281 -5.492188 4.253906 -5.625 4.109375 -5.71875 C 3.960938 -5.820312 3.773438 -5.875 3.546875 -5.875 L 1.703125 -5.875 Z M 1.703125 -0.78125 L 3.703125 -0.78125 C 3.953125 -0.78125 4.160156 -0.835938 4.328125 -0.953125 C 4.492188 -1.066406 4.617188 -1.210938 4.703125 -1.390625 C 4.785156 -1.566406 4.828125 -1.753906 4.828125 -1.953125 C 4.828125 -2.140625 4.785156 -2.316406 4.703125 -2.484375 C 4.617188 -2.660156 4.492188 -2.800781 4.328125 -2.90625 C 4.160156 -3.019531 3.945312 -3.078125 3.6875 -3.078125 L 1.703125 -3.078125 Z M 1.703125 -0.78125 "/></g></g></g><g fill="#fdfdfd" fill-opacity="1"><g transform="translate(72.289783, 148.929068)"><g><path d="M 3.625 0.125 C 2.988281 0.125 2.4375 -0.0195312 1.96875 -0.3125 C 1.5 -0.613281 1.132812 -1.023438 0.875 -1.546875 C 0.625 -2.078125 0.5 -2.675781 0.5 -3.34375 C 0.5 -4.019531 0.625 -4.613281 0.875 -5.125 C 1.132812 -5.644531 1.5 -6.050781 1.96875 -6.34375 C 2.4375 -6.644531 2.988281 -6.796875 3.625 -6.796875 C 4.269531 -6.796875 4.820312 -6.644531 5.28125 -6.34375 C 5.75 -6.050781 6.113281 -5.644531 6.375 -5.125 C 6.632812 -4.613281 6.765625 -4.019531 6.765625 -3.34375 C 6.765625 -2.675781 6.632812 -2.078125 6.375 -1.546875 C 6.113281 -1.023438 5.75 -0.613281 5.28125 -0.3125 C 4.820312 -0.0195312 4.269531 0.125 3.625 0.125 Z M 3.625 -0.671875 C 4.03125 -0.671875 4.394531 -0.769531 4.71875 -0.96875 C 5.050781 -1.175781 5.3125 -1.476562 5.5 -1.875 C 5.695312 -2.269531 5.796875 -2.757812 5.796875 -3.34375 C 5.796875 -3.914062 5.695312 -4.398438 5.5 -4.796875 C 5.3125 -5.191406 5.050781 -5.488281 4.71875 -5.6875 C 4.394531 -5.894531 4.03125 -6 3.625 -6 C 3.226562 -6 2.863281 -5.894531 2.53125 -5.6875 C 2.195312 -5.488281 1.929688 -5.191406 1.734375 -4.796875 C 1.546875 -4.398438 1.453125 -3.914062 1.453125 -3.34375 C 1.453125 -2.757812 1.546875 -2.269531 1.734375 -1.875 C 1.929688 -1.476562 2.195312 -1.175781 2.53125 -0.96875 C 2.863281 -0.769531 3.226562 -0.671875 3.625 -0.671875 Z M 3.625 -0.671875 "/></g></g></g><g fill="#fdfdfd" fill-opacity="1"><g transform="translate(80.13892, 148.929068)"><g><path d="M 0.765625 0 L 0.765625 -6.671875 L 2.875 -6.671875 C 3.414062 -6.671875 3.894531 -6.617188 4.3125 -6.515625 C 4.726562 -6.421875 5.054688 -6.234375 5.296875 -5.953125 C 5.535156 -5.679688 5.65625 -5.28125 5.65625 -4.75 C 5.65625 -4.445312 5.609375 -4.164062 5.515625 -3.90625 C 5.421875 -3.65625 5.238281 -3.4375 4.96875 -3.25 C 4.707031 -3.070312 4.316406 -2.945312 3.796875 -2.875 L 5.875 0 L 4.71875 0 L 2.703125 -2.8125 L 1.703125 -2.8125 L 1.703125 0 Z M 1.703125 -3.59375 L 2.953125 -3.59375 C 3.273438 -3.59375 3.566406 -3.613281 3.828125 -3.65625 C 4.085938 -3.707031 4.296875 -3.8125 4.453125 -3.96875 C 4.609375 -4.132812 4.6875 -4.390625 4.6875 -4.734375 C 4.6875 -5.078125 4.609375 -5.328125 4.453125 -5.484375 C 4.296875 -5.648438 4.085938 -5.753906 3.828125 -5.796875 C 3.566406 -5.847656 3.273438 -5.875 2.953125 -5.875 L 1.703125 -5.875 Z M 1.703125 -3.59375 "/></g></g></g><g fill="#fdfdfd" fill-opacity="1"><g transform="translate(86.899614, 148.929068)"><g><path d="M 0.453125 1.328125 L 0.921875 0.109375 C 0.765625 0.078125 0.632812 0.00390625 0.53125 -0.109375 C 0.425781 -0.234375 0.375 -0.375 0.375 -0.53125 C 0.375 -0.695312 0.4375 -0.84375 0.5625 -0.96875 C 0.695312 -1.101562 0.847656 -1.171875 1.015625 -1.171875 C 1.191406 -1.171875 1.34375 -1.101562 1.46875 -0.96875 C 1.601562 -0.84375 1.671875 -0.695312 1.671875 -0.53125 C 1.671875 -0.445312 1.65625 -0.363281 1.625 -0.28125 L 1 1.328125 Z M 0.453125 1.328125 "/></g></g></g><g fill="#fdfdfd" fill-opacity="1"><g transform="translate(89.536218, 148.929068)"><g/></g></g><g fill="#fdfdfd" fill-opacity="1"><g transform="translate(92.921748, 148.929068)"><g><path d="M 2.3125 0 L 2.3125 -5.859375 L 0.09375 -5.859375 L 0.09375 -6.671875 L 5.46875 -6.671875 L 5.46875 -5.859375 L 3.25 -5.859375 L 3.25 0 Z M 2.3125 0 "/></g></g></g><g fill="#fdfdfd" fill-opacity="1"><g transform="translate(99.083299, 148.929068)"><g><path d="M 0.09375 0 L 2.609375 -6.671875 L 3.65625 -6.671875 L 6.15625 0 L 5.15625 0 L 4.640625 -1.453125 L 1.609375 -1.453125 L 1.09375 0 Z M 1.890625 -2.265625 L 4.359375 -2.265625 L 3.125 -5.734375 Z M 1.890625 -2.265625 "/></g></g></g><g fill="#fdfdfd" fill-opacity="1"><g transform="translate(105.923873, 148.929068)"><g><path d="M 0.765625 0 L 0.765625 -6.671875 L 2.140625 -6.671875 L 5.1875 -1 L 5.1875 -6.671875 L 6.125 -6.671875 L 6.125 0 L 4.75 0 L 1.703125 -5.703125 L 1.703125 0 Z M 0.765625 0 "/></g></g></g><g fill="#fdfdfd" fill-opacity="1"><g transform="translate(113.393553, 148.929068)"><g/></g></g><g fill="#fdfdfd" fill-opacity="1"><g transform="translate(116.779083, 148.929068)"><g><path d="M 3.4375 0.125 C 2.476562 0.125 1.789062 -0.113281 1.375 -0.59375 C 0.96875 -1.082031 0.765625 -1.8125 0.765625 -2.78125 L 0.765625 -6.671875 L 1.703125 -6.671875 L 1.703125 -2.71875 C 1.703125 -2.0625 1.832031 -1.554688 2.09375 -1.203125 C 2.351562 -0.859375 2.800781 -0.6875 3.4375 -0.6875 C 4.082031 -0.6875 4.535156 -0.859375 4.796875 -1.203125 C 5.054688 -1.554688 5.1875 -2.0625 5.1875 -2.71875 L 5.1875 -6.671875 L 6.125 -6.671875 L 6.125 -2.78125 C 6.125 -1.8125 5.921875 -1.082031 5.515625 -0.59375 C 5.109375 -0.113281 4.414062 0.125 3.4375 0.125 Z M 2.859375 -7.421875 C 2.878906 -7.441406 2.9375 -7.503906 3.03125 -7.609375 C 3.125 -7.710938 3.234375 -7.828125 3.359375 -7.953125 C 3.484375 -8.078125 3.597656 -8.191406 3.703125 -8.296875 C 3.816406 -8.398438 3.890625 -8.46875 3.921875 -8.5 C 4.015625 -8.582031 4.113281 -8.625 4.21875 -8.625 C 4.3125 -8.625 4.394531 -8.585938 4.46875 -8.515625 C 4.539062 -8.453125 4.578125 -8.367188 4.578125 -8.265625 C 4.578125 -8.140625 4.523438 -8.035156 4.421875 -7.953125 C 4.367188 -7.898438 4.28125 -7.832031 4.15625 -7.75 C 4.03125 -7.675781 3.910156 -7.609375 3.796875 -7.546875 C 3.691406 -7.484375 3.632812 -7.441406 3.625 -7.421875 Z M 2.859375 -7.421875 "/></g></g></g><g fill="#fdfdfd" fill-opacity="1"><g transform="translate(124.258742, 148.929068)"><g><path d="M 0.765625 0 L 0.765625 -6.671875 L 2.140625 -6.671875 L 5.1875 -1 L 5.1875 -6.671875 L 6.125 -6.671875 L 6.125 0 L 4.75 0 L 1.703125 -5.703125 L 1.703125 0 Z M 0.765625 0 "/></g></g></g><g fill="#fdfdfd" fill-opacity="1"><g transform="translate(131.728421, 148.929068)"><g><path d="M 0.65625 0 L 0.65625 -0.734375 L 1.59375 -0.734375 L 1.59375 -5.9375 L 0.65625 -5.9375 L 0.65625 -6.671875 L 3.46875 -6.671875 L 3.46875 -5.9375 L 2.53125 -5.9375 L 2.53125 -0.734375 L 3.46875 -0.734375 L 3.46875 0 Z M 0.65625 0 "/></g></g></g><g fill="#fdfdfd" fill-opacity="1"><g transform="translate(136.45203, 148.929068)"><g><path d="M 3.53125 0.125 C 2.894531 0.125 2.347656 -0.0195312 1.890625 -0.3125 C 1.441406 -0.613281 1.097656 -1.023438 0.859375 -1.546875 C 0.617188 -2.066406 0.5 -2.664062 0.5 -3.34375 C 0.5 -4.039062 0.625 -4.644531 0.875 -5.15625 C 1.132812 -5.675781 1.5 -6.078125 1.96875 -6.359375 C 2.4375 -6.648438 2.984375 -6.796875 3.609375 -6.796875 C 4.160156 -6.796875 4.660156 -6.664062 5.109375 -6.40625 C 5.566406 -6.144531 5.90625 -5.769531 6.125 -5.28125 L 5.3125 -4.984375 C 5.164062 -5.285156 4.941406 -5.53125 4.640625 -5.71875 C 4.347656 -5.90625 3.984375 -6 3.546875 -6 C 3.160156 -6 2.804688 -5.898438 2.484375 -5.703125 C 2.171875 -5.503906 1.921875 -5.207031 1.734375 -4.8125 C 1.546875 -4.414062 1.453125 -3.925781 1.453125 -3.34375 C 1.453125 -2.78125 1.539062 -2.300781 1.71875 -1.90625 C 1.90625 -1.507812 2.160156 -1.203125 2.484375 -0.984375 C 2.804688 -0.773438 3.171875 -0.671875 3.578125 -0.671875 C 4.015625 -0.671875 4.378906 -0.765625 4.671875 -0.953125 C 4.972656 -1.140625 5.203125 -1.382812 5.359375 -1.6875 L 6.171875 -1.390625 C 5.929688 -0.898438 5.578125 -0.523438 5.109375 -0.265625 C 4.640625 -0.00390625 4.113281 0.125 3.53125 0.125 Z M 3.53125 0.125 "/></g></g></g><g fill="#fdfdfd" fill-opacity="1"><g transform="translate(143.592182, 148.929068)"><g><path d="M 3.625 0.125 C 2.988281 0.125 2.4375 -0.0195312 1.96875 -0.3125 C 1.5 -0.613281 1.132812 -1.023438 0.875 -1.546875 C 0.625 -2.078125 0.5 -2.675781 0.5 -3.34375 C 0.5 -4.019531 0.625 -4.613281 0.875 -5.125 C 1.132812 -5.644531 1.5 -6.050781 1.96875 -6.34375 C 2.4375 -6.644531 2.988281 -6.796875 3.625 -6.796875 C 4.269531 -6.796875 4.820312 -6.644531 5.28125 -6.34375 C 5.75 -6.050781 6.113281 -5.644531 6.375 -5.125 C 6.632812 -4.613281 6.765625 -4.019531 6.765625 -3.34375 C 6.765625 -2.675781 6.632812 -2.078125 6.375 -1.546875 C 6.113281 -1.023438 5.75 -0.613281 5.28125 -0.3125 C 4.820312 -0.0195312 4.269531 0.125 3.625 0.125 Z M 3.625 -0.671875 C 4.03125 -0.671875 4.394531 -0.769531 4.71875 -0.96875 C 5.050781 -1.175781 5.3125 -1.476562 5.5 -1.875 C 5.695312 -2.269531 5.796875 -2.757812 5.796875 -3.34375 C 5.796875 -3.914062 5.695312 -4.398438 5.5 -4.796875 C 5.3125 -5.191406 5.050781 -5.488281 4.71875 -5.6875 C 4.394531 -5.894531 4.03125 -6 3.625 -6 C 3.226562 -6 2.863281 -5.894531 2.53125 -5.6875 C 2.195312 -5.488281 1.929688 -5.191406 1.734375 -4.796875 C 1.546875 -4.398438 1.453125 -3.914062 1.453125 -3.34375 C 1.453125 -2.757812 1.546875 -2.269531 1.734375 -1.875 C 1.929688 -1.476562 2.195312 -1.175781 2.53125 -0.96875 C 2.863281 -0.769531 3.226562 -0.671875 3.625 -0.671875 Z M 3.625 -0.671875 "/></g></g></g><g fill="#fdfdfd" fill-opacity="1"><g transform="translate(151.44132, 148.929068)"><g/></g></g><g fill="#fdfdfd" fill-opacity="1"><g transform="translate(154.82685, 148.929068)"><g><path d="M 3.53125 0.125 C 2.894531 0.125 2.347656 -0.0195312 1.890625 -0.3125 C 1.441406 -0.613281 1.097656 -1.023438 0.859375 -1.546875 C 0.617188 -2.066406 0.5 -2.664062 0.5 -3.34375 C 0.5 -4.039062 0.625 -4.644531 0.875 -5.15625 C 1.132812 -5.675781 1.5 -6.078125 1.96875 -6.359375 C 2.4375 -6.648438 2.984375 -6.796875 3.609375 -6.796875 C 4.160156 -6.796875 4.660156 -6.664062 5.109375 -6.40625 C 5.566406 -6.144531 5.90625 -5.769531 6.125 -5.28125 L 5.3125 -4.984375 C 5.164062 -5.285156 4.941406 -5.53125 4.640625 -5.71875 C 4.347656 -5.90625 3.984375 -6 3.546875 -6 C 3.160156 -6 2.804688 -5.898438 2.484375 -5.703125 C 2.171875 -5.503906 1.921875 -5.207031 1.734375 -4.8125 C 1.546875 -4.414062 1.453125 -3.925781 1.453125 -3.34375 C 1.453125 -2.78125 1.539062 -2.300781 1.71875 -1.90625 C 1.90625 -1.507812 2.160156 -1.203125 2.484375 -0.984375 C 2.804688 -0.773438 3.171875 -0.671875 3.578125 -0.671875 C 4.015625 -0.671875 4.378906 -0.765625 4.671875 -0.953125 C 4.972656 -1.140625 5.203125 -1.382812 5.359375 -1.6875 L 6.171875 -1.390625 C 5.929688 -0.898438 5.578125 -0.523438 5.109375 -0.265625 C 4.640625 -0.00390625 4.113281 0.125 3.53125 0.125 Z M 3.53125 0.125 "/></g></g></g><g fill="#fdfdfd" fill-opacity="1"><g transform="translate(161.967002, 148.929068)"><g><path d="M 3.625 0.125 C 2.988281 0.125 2.4375 -0.0195312 1.96875 -0.3125 C 1.5 -0.613281 1.132812 -1.023438 0.875 -1.546875 C 0.625 -2.078125 0.5 -2.675781 0.5 -3.34375 C 0.5 -4.019531 0.625 -4.613281 0.875 -5.125 C 1.132812 -5.644531 1.5 -6.050781 1.96875 -6.34375 C 2.4375 -6.644531 2.988281 -6.796875 3.625 -6.796875 C 4.269531 -6.796875 4.820312 -6.644531 5.28125 -6.34375 C 5.75 -6.050781 6.113281 -5.644531 6.375 -5.125 C 6.632812 -4.613281 6.765625 -4.019531 6.765625 -3.34375 C 6.765625 -2.675781 6.632812 -2.078125 6.375 -1.546875 C 6.113281 -1.023438 5.75 -0.613281 5.28125 -0.3125 C 4.820312 -0.0195312 4.269531 0.125 3.625 0.125 Z M 3.625 -0.671875 C 4.03125 -0.671875 4.394531 -0.769531 4.71875 -0.96875 C 5.050781 -1.175781 5.3125 -1.476562 5.5 -1.875 C 5.695312 -2.269531 5.796875 -2.757812 5.796875 -3.34375 C 5.796875 -3.914062 5.695312 -4.398438 5.5 -4.796875 C 5.3125 -5.191406 5.050781 -5.488281 4.71875 -5.6875 C 4.394531 -5.894531 4.03125 -6 3.625 -6 C 3.226562 -6 2.863281 -5.894531 2.53125 -5.6875 C 2.195312 -5.488281 1.929688 -5.191406 1.734375 -4.796875 C 1.546875 -4.398438 1.453125 -3.914062 1.453125 -3.34375 C 1.453125 -2.757812 1.546875 -2.269531 1.734375 -1.875 C 1.929688 -1.476562 2.195312 -1.175781 2.53125 -0.96875 C 2.863281 -0.769531 3.226562 -0.671875 3.625 -0.671875 Z M 3.625 -0.671875 "/></g></g></g><g fill="#fdfdfd" fill-opacity="1"><g transform="translate(169.81614, 148.929068)"><g><path d="M 0.765625 0 L 0.765625 -6.671875 L 2.3125 -6.671875 L 4.09375 -1.21875 L 5.875 -6.671875 L 7.421875 -6.671875 L 7.421875 0 L 6.484375 0 L 6.484375 -5.6875 L 4.5625 0 L 3.640625 0 L 1.703125 -5.6875 L 1.703125 0 Z M 0.765625 0 "/></g></g></g><g fill="#fdfdfd" fill-opacity="1"><g transform="translate(178.593937, 148.929068)"><g><path d="M 3.625 0.125 C 2.988281 0.125 2.4375 -0.0195312 1.96875 -0.3125 C 1.5 -0.613281 1.132812 -1.023438 0.875 -1.546875 C 0.625 -2.078125 0.5 -2.675781 0.5 -3.34375 C 0.5 -4.019531 0.625 -4.613281 0.875 -5.125 C 1.132812 -5.644531 1.5 -6.050781 1.96875 -6.34375 C 2.4375 -6.644531 2.988281 -6.796875 3.625 -6.796875 C 4.269531 -6.796875 4.820312 -6.644531 5.28125 -6.34375 C 5.75 -6.050781 6.113281 -5.644531 6.375 -5.125 C 6.632812 -4.613281 6.765625 -4.019531 6.765625 -3.34375 C 6.765625 -2.675781 6.632812 -2.078125 6.375 -1.546875 C 6.113281 -1.023438 5.75 -0.613281 5.28125 -0.3125 C 4.820312 -0.0195312 4.269531 0.125 3.625 0.125 Z M 3.625 -0.671875 C 4.03125 -0.671875 4.394531 -0.769531 4.71875 -0.96875 C 5.050781 -1.175781 5.3125 -1.476562 5.5 -1.875 C 5.695312 -2.269531 5.796875 -2.757812 5.796875 -3.34375 C 5.796875 -3.914062 5.695312 -4.398438 5.5 -4.796875 C 5.3125 -5.191406 5.050781 -5.488281 4.71875 -5.6875 C 4.394531 -5.894531 4.03125 -6 3.625 -6 C 3.226562 -6 2.863281 -5.894531 2.53125 -5.6875 C 2.195312 -5.488281 1.929688 -5.191406 1.734375 -4.796875 C 1.546875 -4.398438 1.453125 -3.914062 1.453125 -3.34375 C 1.453125 -2.757812 1.546875 -2.269531 1.734375 -1.875 C 1.929688 -1.476562 2.195312 -1.175781 2.53125 -0.96875 C 2.863281 -0.769531 3.226562 -0.671875 3.625 -0.671875 Z M 3.625 -0.671875 "/></g></g></g><g fill="#fdfdfd" fill-opacity="1"><g transform="translate(186.443075, 148.929068)"><g/></g></g><g fill="#fdfdfd" fill-opacity="1"><g transform="translate(189.828605, 148.929068)"><g><path d="M 2.3125 0 L 2.3125 -5.859375 L 0.09375 -5.859375 L 0.09375 -6.671875 L 5.46875 -6.671875 L 5.46875 -5.859375 L 3.25 -5.859375 L 3.25 0 Z M 2.3125 0 "/></g></g></g><g fill="#fdfdfd" fill-opacity="1"><g transform="translate(195.990155, 148.929068)"><g><path d="M 3.4375 0.125 C 2.476562 0.125 1.789062 -0.113281 1.375 -0.59375 C 0.96875 -1.082031 0.765625 -1.8125 0.765625 -2.78125 L 0.765625 -6.671875 L 1.703125 -6.671875 L 1.703125 -2.71875 C 1.703125 -2.0625 1.832031 -1.554688 2.09375 -1.203125 C 2.351562 -0.859375 2.800781 -0.6875 3.4375 -0.6875 C 4.082031 -0.6875 4.535156 -0.859375 4.796875 -1.203125 C 5.054688 -1.554688 5.1875 -2.0625 5.1875 -2.71875 L 5.1875 -6.671875 L 6.125 -6.671875 L 6.125 -2.78125 C 6.125 -1.8125 5.921875 -1.082031 5.515625 -0.59375 C 5.109375 -0.113281 4.414062 0.125 3.4375 0.125 Z M 2.859375 -7.421875 C 2.878906 -7.441406 2.9375 -7.503906 3.03125 -7.609375 C 3.125 -7.710938 3.234375 -7.828125 3.359375 -7.953125 C 3.484375 -8.078125 3.597656 -8.191406 3.703125 -8.296875 C 3.816406 -8.398438 3.890625 -8.46875 3.921875 -8.5 C 4.015625 -8.582031 4.113281 -8.625 4.21875 -8.625 C 4.3125 -8.625 4.394531 -8.585938 4.46875 -8.515625 C 4.539062 -8.453125 4.578125 -8.367188 4.578125 -8.265625 C 4.578125 -8.140625 4.523438 -8.035156 4.421875 -7.953125 C 4.367188 -7.898438 4.28125 -7.832031 4.15625 -7.75 C 4.03125 -7.675781 3.910156 -7.609375 3.796875 -7.546875 C 3.691406 -7.484375 3.632812 -7.441406 3.625 -7.421875 Z M 2.859375 -7.421875 "/></g></g></g></svg>