<svg width="32" height="32" viewBox="0 0 32 32" fill="none" xmlns="http://www.w3.org/2000/svg">
<path d="M4 3.5C3.72386 3.5 3.5 3.72386 3.5 4C3.5 4.27614 3.72386 4.5 4 4.5L4 3.5ZM7.33333 4L7.8184 3.87873C7.76276 3.65615 7.56277 3.5 7.33333 3.5V4ZM25.3333 21.8333C25.6095 21.8333 25.8333 21.6095 25.8333 21.3333C25.8333 21.0572 25.6095 20.8333 25.3333 20.8333V21.8333ZM28 6.66667L28.4851 6.78793C28.5224 6.63856 28.4889 6.48032 28.3941 6.35896C28.2994 6.2376 28.154 6.16667 28 6.16667V6.66667ZM25.3333 17.3333V17.8333C25.5628 17.8333 25.7628 17.6772 25.8184 17.4546L25.3333 17.3333ZM4 4.5H7.33333V3.5H4L4 4.5ZM6.84826 4.12127L7.51493 6.78793L8.48507 6.5454L7.8184 3.87873L6.84826 4.12127ZM7.51493 6.78793L10.1816 17.4546L11.1517 17.2121L8.48507 6.5454L7.51493 6.78793ZM10.6667 16.8333H10V17.8333H10.6667V16.8333ZM10 21.8333H25.3333V20.8333H10V21.8333ZM7.5 19.3333C7.5 20.714 8.61929 21.8333 10 21.8333V20.8333C9.17157 20.8333 8.5 20.1618 8.5 19.3333H7.5ZM10 16.8333C8.61929 16.8333 7.5 17.9526 7.5 19.3333H8.5C8.5 18.5049 9.17157 17.8333 10 17.8333V16.8333ZM8 7.16667H28V6.16667H8V7.16667ZM27.5149 6.5454L24.8483 17.2121L25.8184 17.4546L28.4851 6.78793L27.5149 6.5454ZM25.3333 16.8333H10.6667V17.8333H25.3333V16.8333ZM24.8333 26.6667C24.8333 27.1269 24.4602 27.5 24 27.5V28.5C25.0125 28.5 25.8333 27.6792 25.8333 26.6667H24.8333ZM24 27.5C23.5398 27.5 23.1667 27.1269 23.1667 26.6667H22.1667C22.1667 27.6792 22.9875 28.5 24 28.5V27.5ZM23.1667 26.6667C23.1667 26.2064 23.5398 25.8333 24 25.8333V24.8333C22.9875 24.8333 22.1667 25.6541 22.1667 26.6667H23.1667ZM24 25.8333C24.4602 25.8333 24.8333 26.2064 24.8333 26.6667H25.8333C25.8333 25.6541 25.0125 24.8333 24 24.8333V25.8333ZM11.5 26.6667C11.5 27.1269 11.1269 27.5 10.6667 27.5V28.5C11.6792 28.5 12.5 27.6792 12.5 26.6667H11.5ZM10.6667 27.5C10.2064 27.5 9.83333 27.1269 9.83333 26.6667H8.83333C8.83333 27.6792 9.65414 28.5 10.6667 28.5V27.5ZM9.83333 26.6667C9.83333 26.2064 10.2064 25.8333 10.6667 25.8333V24.8333C9.65414 24.8333 8.83333 25.6541 8.83333 26.6667H9.83333ZM10.6667 25.8333C11.1269 25.8333 11.5 26.2064 11.5 26.6667H12.5C12.5 25.6541 11.6792 24.8333 10.6667 24.8333V25.8333Z" fill="black"/>
</svg>