<svg xmlns="http://www.w3.org/2000/svg" xmlns:xlink="http://www.w3.org/1999/xlink" width="526" zoomAndPan="magnify" viewBox="0 0 394.5 200.249992" height="267" preserveAspectRatio="xMidYMid meet" version="1.0"><defs><g/><clipPath id="7e5ba3996e"><path d="M 10 85 L 126.765625 85 L 126.765625 118 L 10 118 Z M 10 85 " clip-rule="nonzero"/></clipPath><clipPath id="84faba0de9"><path d="M 51 26.699219 L 65 26.699219 L 65 46 L 51 46 Z M 51 26.699219 " clip-rule="nonzero"/></clipPath></defs><path fill="#89dcde" d="M 58.59375 46.09375 C 58.59375 46.09375 51.144531 54.734375 57.601562 59.402344 C 64.058594 64.070312 74.878906 58.789062 73.890625 52.25 C 72.902344 45.707031 62.964844 44.007812 58.59375 46.09375 Z M 58.59375 46.09375 " fill-opacity="1" fill-rule="evenodd"/><path fill="#ffc9e8" d="M 111.832031 108.566406 C 111.832031 108.566406 96.136719 129.226562 92.460938 145.21875 C 89.382812 147.800781 39.621094 151.078125 39.621094 151.078125 C 39.621094 151.078125 50.347656 116.613281 111.832031 108.566406 Z M 111.832031 108.566406 " fill-opacity="1" fill-rule="evenodd"/><path fill="#89dcde" d="M 47.132812 111.882812 C 70.753906 105.644531 87.628906 66 117.726562 94.457031 C 117.726562 94.457031 103.410156 93.402344 102.117188 94.492188 C 100.828125 95.582031 67.019531 108.019531 65.078125 108.191406 C 63.132812 108.367188 47.132812 111.882812 47.132812 111.882812 Z M 47.132812 111.882812 " fill-opacity="1" fill-rule="evenodd"/><path fill="#89dcde" d="M 39.105469 101.410156 C 61.347656 91.300781 79.617188 48.03125 105.589844 76.90625 C 105.589844 76.90625 95.742188 75.042969 94.648438 76.335938 C 93.554688 77.625 58.496094 95.605469 56.609375 96.101562 C 54.722656 96.597656 39.105469 101.410156 39.105469 101.410156 Z M 39.105469 101.410156 " fill-opacity="1" fill-rule="evenodd"/><g clip-path="url(#7e5ba3996e)"><path fill="#182f3e" d="M 27.765625 85.480469 C 27.710938 85.507812 8.890625 95.53125 19.542969 108.015625 C 28.898438 118.984375 49.050781 111.429688 64.417969 105.671875 C 70.503906 103.386719 76.621094 101.386719 82.742188 99.214844 C 97.257812 94.066406 122.621094 80.835938 126.355469 104.699219 C 123.742188 88.3125 92.613281 101.097656 84.429688 104.003906 C 78.339844 106.164062 72.246094 108.144531 66.183594 110.417969 C 0.992188 134.851562 0.574219 88.847656 27.765625 85.480469 Z M 27.765625 85.480469 " fill-opacity="1" fill-rule="nonzero"/></g><path fill="#182f3e" d="M 114.148438 88.578125 C 114.117188 88.539062 103.921875 75.132812 89.375 80.277344 C 83.65625 82.296875 76.074219 86.980469 68.144531 91.878906 C 56.285156 99.203125 40.75 111.761719 25.71875 103.566406 C 33.449219 105.996094 51.964844 95.917969 65.480469 87.570312 C 73.671875 82.511719 81.5 77.679688 87.6875 75.488281 C 98.128906 71.792969 110.035156 75.390625 114.148438 88.578125 Z M 114.148438 88.578125 " fill-opacity="1" fill-rule="nonzero"/><path fill="#182f3e" d="M 102.269531 69.578125 C 102.226562 69.539062 88.082031 55.574219 72.144531 67.214844 C 65.007812 72.425781 59.140625 77.679688 54.121094 82.171875 C 48.667969 87.054688 38.332031 93.992188 31.710938 91.390625 C 36.195312 90.472656 43.761719 84.652344 50.746094 78.398438 C 55.839844 73.835938 61.800781 68.5 69.164062 63.121094 C 79.863281 55.308594 96.488281 56.222656 102.269531 69.578125 Z M 102.269531 69.578125 " fill-opacity="1" fill-rule="nonzero"/><path fill="#182f3e" d="M 64.015625 67.082031 C 83.628906 49.070312 52.402344 37.769531 50.980469 59.882812 C 41.945312 33.507812 96.328125 36.992188 67.75 70.5 Z M 64.015625 67.082031 " fill-opacity="1" fill-rule="nonzero"/><path fill="#182f3e" d="M 118.433594 105.496094 C 118.433594 105.496094 104.527344 134.101562 102.144531 155.554688 C 102.144531 155.554688 59.238281 161.117188 37.78125 155.554688 C 37.78125 155.554688 29.023438 136.667969 28.84375 120.792969 C 28.84375 120.792969 37.683594 147.308594 41.457031 149.695312 C 47.714844 150.390625 84.960938 152.675781 96.882812 149.097656 C 101.054688 134.695312 104.527344 124.167969 118.433594 105.496094 Z M 118.433594 105.496094 " fill-opacity="1" fill-rule="evenodd"/><path fill="#182f3e" d="M 61.625 153.257812 C 58.246094 148.507812 52.191406 120.878906 52.191406 120.878906 C 51.394531 130.117188 56.5625 153.65625 56.5625 153.65625 Z M 61.625 153.257812 " fill-opacity="1" fill-rule="evenodd"/><path fill="#182f3e" d="M 77.914062 153.359375 C 77.914062 153.359375 82.683594 120.679688 89.535156 108.164062 C 89.535156 108.164062 81.789062 145.214844 82.878906 154.648438 L 79.058594 154.898438 Z M 77.914062 153.359375 " fill-opacity="1" fill-rule="evenodd"/><g clip-path="url(#84faba0de9)"><path fill="#182f3e" d="M 51.960938 30.175781 C 51.203125 29.449219 51.179688 28.246094 51.910156 27.488281 C 52.636719 26.734375 53.839844 26.710938 54.597656 27.4375 C 54.621094 27.457031 62.234375 34.867188 64.355469 42.71875 C 64.628906 43.734375 64.023438 44.777344 63.007812 45.050781 C 61.992188 45.320312 60.949219 44.71875 60.675781 43.703125 C 58.828125 36.855469 51.980469 30.199219 51.960938 30.175781 Z M 51.960938 30.175781 " fill-opacity="1" fill-rule="nonzero"/></g><g fill="#216164" fill-opacity="1"><g transform="translate(135.977596, 82.470599)"><g><path d="M 26.953125 0 C 18.992188 0.789062 13.007812 -0.363281 9 -3.46875 C 4.988281 -6.570312 2.707031 -12.15625 2.15625 -20.21875 C 1.96875 -22.8125 2.007812 -25.171875 2.28125 -27.296875 C 2.5625 -29.429688 2.820312 -31.773438 3.0625 -34.328125 C 3.332031 -37.242188 4.09375 -39.613281 5.34375 -41.4375 C 6.59375 -43.269531 8.164062 -44.660156 10.0625 -45.609375 C 11.96875 -46.566406 14 -47.238281 16.15625 -47.625 C 18.3125 -48.019531 20.40625 -48.265625 22.4375 -48.359375 C 23.832031 -48.410156 25.429688 -48.316406 27.234375 -48.078125 C 29.046875 -47.847656 30.804688 -47.296875 32.515625 -46.421875 C 35.617188 -44.835938 37.238281 -42.539062 37.375 -39.53125 C 37.46875 -38.28125 37.25 -37.378906 36.71875 -36.828125 C 36.1875 -36.273438 35.582031 -35.972656 34.90625 -35.921875 C 34.238281 -35.878906 33.765625 -35.945312 33.484375 -36.125 C 32.890625 -36.457031 32.488281 -37.039062 32.28125 -37.875 C 32.070312 -38.707031 31.894531 -39.332031 31.75 -39.75 C 30.96875 -41.78125 29.328125 -42.84375 26.828125 -42.9375 C 25.335938 -42.9375 24.195312 -42.4375 23.40625 -41.4375 C 22.625 -40.445312 22.070312 -39.242188 21.75 -37.828125 C 21.425781 -36.421875 21.238281 -35.113281 21.1875 -33.90625 C 21.09375 -32.195312 20.988281 -30.492188 20.875 -28.796875 C 20.757812 -27.109375 20.726562 -25.382812 20.78125 -23.625 C 20.6875 -19.875 20.753906 -15.984375 20.984375 -11.953125 C 21.117188 -10.972656 21.441406 -9.972656 21.953125 -8.953125 C 22.460938 -7.941406 23.210938 -7.109375 24.203125 -6.453125 C 25.203125 -5.804688 26.492188 -5.53125 28.078125 -5.625 C 29.273438 -5.53125 30.289062 -5.96875 31.125 -6.9375 C 31.957031 -7.914062 32.609375 -9.3125 33.078125 -11.125 C 33.398438 -12.1875 33.664062 -13.203125 33.875 -14.171875 C 34.082031 -15.148438 34.414062 -15.90625 34.875 -16.4375 C 35.34375 -16.96875 36.109375 -17.117188 37.171875 -16.890625 C 38.148438 -16.703125 38.71875 -16.191406 38.875 -15.359375 C 39.039062 -14.523438 39.144531 -13.851562 39.1875 -13.34375 C 39.144531 -11.113281 38.578125 -9.023438 37.484375 -7.078125 C 36.398438 -5.140625 34.941406 -3.53125 33.109375 -2.25 C 31.273438 -0.976562 29.222656 -0.226562 26.953125 0 Z M 26.953125 0 "/></g></g></g><g fill="#216164" fill-opacity="1"><g transform="translate(177.254467, 82.470599)"><g><path d="M 8.546875 0.34375 C 6.742188 0.207031 5.378906 -0.0546875 4.453125 -0.453125 C 3.523438 -0.847656 2.894531 -1.53125 2.5625 -2.5 C 2.238281 -3.46875 2.078125 -4.878906 2.078125 -6.734375 C 2.171875 -9.472656 2.191406 -12.226562 2.140625 -15 C 2.097656 -17.78125 2.078125 -20.515625 2.078125 -23.203125 C 2.128906 -25.941406 2.164062 -28.769531 2.1875 -31.6875 C 2.207031 -34.601562 2.242188 -37.453125 2.296875 -40.234375 C 2.335938 -42.359375 2.601562 -43.929688 3.09375 -44.953125 C 3.582031 -45.972656 4.414062 -46.644531 5.59375 -46.96875 C 6.769531 -47.289062 8.378906 -47.429688 10.421875 -47.390625 C 11.390625 -47.390625 12.460938 -47.398438 13.640625 -47.421875 C 14.828125 -47.441406 15.941406 -47.347656 16.984375 -47.140625 C 18.023438 -46.929688 18.859375 -46.503906 19.484375 -45.859375 C 20.109375 -45.210938 20.351562 -44.191406 20.21875 -42.796875 C 20.445312 -39.878906 20.675781 -36.945312 20.90625 -34 C 21.144531 -31.0625 21.3125 -28.132812 21.40625 -25.21875 C 21.445312 -24.34375 21.769531 -23.613281 22.375 -23.03125 C 22.976562 -22.457031 23.71875 -22.171875 24.59375 -22.171875 C 25.425781 -22.171875 26.28125 -22.171875 27.15625 -22.171875 C 28.039062 -22.171875 28.898438 -22.144531 29.734375 -22.09375 C 30.660156 -22.09375 31.410156 -22.289062 31.984375 -22.6875 C 32.566406 -23.082031 32.882812 -23.582031 32.9375 -24.1875 C 32.9375 -24.550781 32.945312 -24.90625 32.96875 -25.25 C 32.988281 -25.601562 33 -25.941406 33 -26.265625 L 33.078125 -27.03125 L 33.21875 -37.515625 C 33.164062 -40.109375 33.160156 -42.125 33.203125 -43.5625 C 33.253906 -45 33.507812 -45.992188 33.96875 -46.546875 C 34.4375 -47.109375 35.296875 -47.390625 36.546875 -47.390625 C 37.703125 -47.390625 38.5 -47.179688 38.9375 -46.765625 C 39.382812 -46.347656 39.65625 -45.660156 39.75 -44.703125 C 39.84375 -43.753906 39.910156 -42.472656 39.953125 -40.859375 C 40.046875 -39.140625 40.113281 -37.085938 40.15625 -34.703125 C 40.207031 -32.316406 40.234375 -29.941406 40.234375 -27.578125 C 40.234375 -25.222656 40.1875 -23.164062 40.09375 -21.40625 L 40.015625 -20.640625 C 40.015625 -20.265625 40.023438 -19.867188 40.046875 -19.453125 C 40.078125 -19.035156 40.09375 -18.597656 40.09375 -18.140625 C 40.1875 -14.109375 40.21875 -10.898438 40.1875 -8.515625 C 40.164062 -6.128906 40.050781 -4.34375 39.84375 -3.15625 C 39.632812 -1.976562 39.265625 -1.203125 38.734375 -0.828125 C 38.203125 -0.460938 37.472656 -0.28125 36.546875 -0.28125 C 35.429688 -0.28125 34.640625 -0.488281 34.171875 -0.90625 C 33.710938 -1.320312 33.445312 -2.015625 33.375 -2.984375 C 33.3125 -3.960938 33.234375 -5.238281 33.140625 -6.8125 L 32.9375 -11.953125 C 32.882812 -12.878906 32.640625 -13.65625 32.203125 -14.28125 C 31.765625 -14.90625 31.222656 -15.191406 30.578125 -15.140625 C 29.742188 -15.097656 28.816406 -15.066406 27.796875 -15.046875 C 26.773438 -15.023438 25.660156 -15.015625 24.453125 -15.015625 C 23.578125 -15.015625 22.847656 -14.769531 22.265625 -14.28125 C 21.691406 -13.789062 21.378906 -13.175781 21.328125 -12.4375 C 21.378906 -9.238281 21.359375 -6.710938 21.265625 -4.859375 C 21.171875 -3.003906 20.765625 -1.660156 20.046875 -0.828125 C 19.328125 0.00390625 18.078125 0.476562 16.296875 0.59375 C 14.515625 0.707031 11.929688 0.625 8.546875 0.34375 Z M 8.546875 0.34375 "/></g></g></g><g fill="#216164" fill-opacity="1"><g transform="translate(219.573687, 82.470599)"><g><path d="M 8.546875 0.34375 C 6.742188 0.207031 5.378906 -0.0546875 4.453125 -0.453125 C 3.523438 -0.847656 2.894531 -1.53125 2.5625 -2.5 C 2.238281 -3.46875 2.078125 -4.878906 2.078125 -6.734375 C 2.171875 -9.472656 2.191406 -12.226562 2.140625 -15 C 2.097656 -17.78125 2.078125 -20.515625 2.078125 -23.203125 C 2.128906 -25.941406 2.164062 -28.769531 2.1875 -31.6875 C 2.207031 -34.601562 2.242188 -37.453125 2.296875 -40.234375 C 2.335938 -42.359375 2.601562 -43.929688 3.09375 -44.953125 C 3.582031 -45.972656 4.414062 -46.644531 5.59375 -46.96875 C 6.769531 -47.289062 8.378906 -47.429688 10.421875 -47.390625 C 11.390625 -47.390625 12.460938 -47.398438 13.640625 -47.421875 C 14.828125 -47.441406 15.941406 -47.347656 16.984375 -47.140625 C 18.023438 -46.929688 18.859375 -46.503906 19.484375 -45.859375 C 20.109375 -45.210938 20.351562 -44.191406 20.21875 -42.796875 C 20.59375 -37.753906 20.953125 -32.707031 21.296875 -27.65625 C 21.640625 -22.601562 21.648438 -17.53125 21.328125 -12.4375 C 21.378906 -9.238281 21.359375 -6.710938 21.265625 -4.859375 C 21.171875 -3.003906 20.765625 -1.660156 20.046875 -0.828125 C 19.328125 0.00390625 18.078125 0.476562 16.296875 0.59375 C 14.515625 0.707031 11.929688 0.625 8.546875 0.34375 Z M 8.546875 0.34375 "/></g></g></g><g fill="#216164" fill-opacity="1"><g transform="translate(243.200181, 82.470599)"><g><path d="M 24.8125 -0.0625 C 22.164062 -0.0625 19.5 -0.0390625 16.8125 0 C 14.125 0.0390625 11.484375 -0.0234375 8.890625 -0.203125 C 6.484375 -0.296875 4.816406 -0.828125 3.890625 -1.796875 C 2.960938 -2.773438 2.453125 -4.492188 2.359375 -6.953125 L 2.359375 -20.5 C 2.359375 -20.5 2.347656 -20.507812 2.328125 -20.53125 C 2.304688 -20.550781 2.296875 -20.585938 2.296875 -20.640625 L 2.296875 -23.765625 C 2.335938 -24.597656 2.3125 -25.894531 2.21875 -27.65625 C 2.125 -29.414062 2.066406 -31.472656 2.046875 -33.828125 C 2.023438 -36.191406 2.128906 -38.695312 2.359375 -41.34375 C 2.546875 -43.0625 2.835938 -44.320312 3.234375 -45.125 C 3.628906 -45.9375 4.285156 -46.484375 5.203125 -46.765625 C 6.128906 -47.046875 7.472656 -47.207031 9.234375 -47.25 C 10.066406 -47.289062 11.0625 -47.332031 12.21875 -47.375 C 13.382812 -47.425781 14.519531 -47.335938 15.625 -47.109375 C 16.738281 -46.878906 17.703125 -46.359375 18.515625 -45.546875 C 19.328125 -44.734375 19.828125 -43.492188 20.015625 -41.828125 C 20.054688 -39.421875 20.097656 -37.507812 20.140625 -36.09375 C 20.191406 -34.6875 20.238281 -33.519531 20.28125 -32.59375 C 20.332031 -31.664062 20.378906 -30.738281 20.421875 -29.8125 C 20.472656 -28.882812 20.5 -27.703125 20.5 -26.265625 C 20.5 -25.148438 20.460938 -24.117188 20.390625 -23.171875 C 20.328125 -22.222656 20.296875 -21.515625 20.296875 -21.046875 L 20.296875 -11.1875 C 20.296875 -9.519531 20.503906 -8.421875 20.921875 -7.890625 C 21.335938 -7.359375 22.398438 -6.925781 24.109375 -6.59375 C 24.753906 -6.457031 25.410156 -6.332031 26.078125 -6.21875 C 26.753906 -6.101562 27.394531 -6 28 -5.90625 C 28.507812 -5.863281 28.992188 -5.84375 29.453125 -5.84375 C 29.921875 -5.84375 30.410156 -5.796875 30.921875 -5.703125 C 32.398438 -5.421875 33.164062 -4.65625 33.21875 -3.40625 C 33.257812 -2.195312 32.675781 -1.316406 31.46875 -0.765625 C 30.363281 -0.296875 29.320312 -0.0625 28.34375 -0.0625 Z M 24.8125 -0.0625 "/></g></g></g><g fill="#216164" fill-opacity="1"><g transform="translate(278.500945, 82.470599)"><g><path d="M 24.8125 -0.0625 C 22.164062 -0.0625 19.5 -0.0390625 16.8125 0 C 14.125 0.0390625 11.484375 -0.0234375 8.890625 -0.203125 C 6.484375 -0.296875 4.816406 -0.828125 3.890625 -1.796875 C 2.960938 -2.773438 2.453125 -4.492188 2.359375 -6.953125 L 2.359375 -20.5 C 2.359375 -20.5 2.347656 -20.507812 2.328125 -20.53125 C 2.304688 -20.550781 2.296875 -20.585938 2.296875 -20.640625 L 2.296875 -23.765625 C 2.335938 -24.597656 2.3125 -25.894531 2.21875 -27.65625 C 2.125 -29.414062 2.066406 -31.472656 2.046875 -33.828125 C 2.023438 -36.191406 2.128906 -38.695312 2.359375 -41.34375 C 2.546875 -43.0625 2.835938 -44.320312 3.234375 -45.125 C 3.628906 -45.9375 4.285156 -46.484375 5.203125 -46.765625 C 6.128906 -47.046875 7.472656 -47.207031 9.234375 -47.25 C 10.066406 -47.289062 11.0625 -47.332031 12.21875 -47.375 C 13.382812 -47.425781 14.519531 -47.335938 15.625 -47.109375 C 16.738281 -46.878906 17.703125 -46.359375 18.515625 -45.546875 C 19.328125 -44.734375 19.828125 -43.492188 20.015625 -41.828125 C 20.054688 -39.421875 20.097656 -37.507812 20.140625 -36.09375 C 20.191406 -34.6875 20.238281 -33.519531 20.28125 -32.59375 C 20.332031 -31.664062 20.378906 -30.738281 20.421875 -29.8125 C 20.472656 -28.882812 20.5 -27.703125 20.5 -26.265625 C 20.5 -25.148438 20.460938 -24.117188 20.390625 -23.171875 C 20.328125 -22.222656 20.296875 -21.515625 20.296875 -21.046875 L 20.296875 -11.1875 C 20.296875 -9.519531 20.503906 -8.421875 20.921875 -7.890625 C 21.335938 -7.359375 22.398438 -6.925781 24.109375 -6.59375 C 24.753906 -6.457031 25.410156 -6.332031 26.078125 -6.21875 C 26.753906 -6.101562 27.394531 -6 28 -5.90625 C 28.507812 -5.863281 28.992188 -5.84375 29.453125 -5.84375 C 29.921875 -5.84375 30.410156 -5.796875 30.921875 -5.703125 C 32.398438 -5.421875 33.164062 -4.65625 33.21875 -3.40625 C 33.257812 -2.195312 32.675781 -1.316406 31.46875 -0.765625 C 30.363281 -0.296875 29.320312 -0.0625 28.34375 -0.0625 Z M 24.8125 -0.0625 "/></g></g></g><g fill="#216164" fill-opacity="1"><g transform="translate(313.801709, 82.470599)"><g/></g></g><g fill="#216164" fill-opacity="1"><g transform="translate(330.479228, 82.470599)"><g><path d="M 12.640625 -36.40625 C 12.046875 -35.800781 12 -34.894531 12.5 -33.6875 C 13.007812 -32.488281 14.125 -31.082031 15.84375 -29.46875 C 16.394531 -30.15625 16.867188 -31.03125 17.265625 -32.09375 C 17.660156 -33.164062 17.925781 -34.234375 18.0625 -35.296875 C 18.207031 -36.359375 18.128906 -37.210938 17.828125 -37.859375 C 17.523438 -38.515625 16.96875 -38.769531 16.15625 -38.625 C 15.34375 -38.488281 14.171875 -37.75 12.640625 -36.40625 Z M 2.921875 -5.34375 C 2.085938 -6.78125 1.863281 -8.414062 2.25 -10.25 C 2.644531 -12.082031 3.398438 -13.898438 4.515625 -15.703125 C 5.628906 -17.503906 6.765625 -19.101562 7.921875 -20.5 L 9.796875 -22.71875 L 7.09375 -25.4375 C 6.207031 -26.3125 5.425781 -27.222656 4.75 -28.171875 C 4.082031 -29.117188 3.65625 -30.035156 3.46875 -30.921875 C 2.957031 -32.867188 3.175781 -34.675781 4.125 -36.34375 C 5.082031 -38.007812 6.488281 -39.429688 8.34375 -40.609375 C 10.195312 -41.796875 12.28125 -42.703125 14.59375 -43.328125 C 16.90625 -43.953125 19.21875 -44.191406 21.53125 -44.046875 C 23.851562 -43.910156 25.960938 -43.351562 27.859375 -42.375 C 29.765625 -41.40625 31.210938 -39.925781 32.203125 -37.9375 C 33.203125 -35.945312 33.492188 -33.375 33.078125 -30.21875 C 33.023438 -29.0625 32.6875 -27.753906 32.0625 -26.296875 C 31.4375 -24.835938 30.601562 -23.425781 29.5625 -22.0625 C 28.519531 -20.695312 27.351562 -19.550781 26.0625 -18.625 L 29.59375 -15.015625 C 30.101562 -15.703125 30.539062 -16.320312 30.90625 -16.875 C 31.28125 -17.4375 31.5625 -17.945312 31.75 -18.40625 C 32.257812 -19.425781 33.09375 -19.984375 34.25 -20.078125 C 35.414062 -20.171875 36.367188 -19.753906 37.109375 -18.828125 C 37.523438 -18.316406 37.5 -17.191406 37.03125 -15.453125 C 36.570312 -13.722656 35.851562 -11.789062 34.875 -9.65625 L 33.984375 -7.859375 C 34.816406 -6.234375 35.519531 -4.65625 36.09375 -3.125 C 36.675781 -1.59375 37.070312 -0.273438 37.28125 0.828125 C 37.488281 1.941406 37.429688 2.707031 37.109375 3.125 C 36.367188 4.007812 35.414062 4.414062 34.25 4.34375 C 33.09375 4.269531 32.257812 3.722656 31.75 2.703125 C 31.332031 1.828125 30.546875 0.625 29.390625 -0.90625 C 27.722656 0.34375 25.71875 1.269531 23.375 1.875 C 21.039062 2.476562 18.585938 2.648438 16.015625 2.390625 C 13.441406 2.140625 11 1.390625 8.6875 0.140625 C 6.375 -1.109375 4.453125 -2.9375 2.921875 -5.34375 Z M 18.765625 -13.484375 C 16.816406 -11.910156 15.644531 -10.519531 15.25 -9.3125 C 14.851562 -8.101562 14.957031 -7.101562 15.5625 -6.3125 C 16.164062 -5.53125 16.988281 -4.921875 18.03125 -4.484375 C 19.070312 -4.046875 20.113281 -3.800781 21.15625 -3.75 C 22.195312 -3.707031 22.925781 -3.847656 23.34375 -4.171875 C 24.039062 -4.679688 24.296875 -5.335938 24.109375 -6.140625 C 23.921875 -6.953125 23.488281 -7.8125 22.8125 -8.71875 C 22.144531 -9.625 21.429688 -10.503906 20.671875 -11.359375 C 19.910156 -12.210938 19.273438 -12.921875 18.765625 -13.484375 Z M 18.765625 -13.484375 "/></g></g></g><g fill="#216164" fill-opacity="1"><g transform="translate(369.956723, 82.470599)"><g/></g></g><g fill="#216164" fill-opacity="1"><g transform="translate(135.977596, 154.949138)"><g><path d="M 28.25 -0.296875 C 26.09375 0.398438 23.722656 0.75 21.140625 0.75 C 18.566406 0.75 16.050781 0.460938 13.59375 -0.109375 C 11.144531 -0.691406 8.976562 -1.484375 7.09375 -2.484375 C 5.21875 -3.484375 3.84375 -4.609375 2.96875 -5.859375 C 2.09375 -7.109375 1.976562 -8.410156 2.625 -9.765625 C 2.976562 -10.617188 3.53125 -11.132812 4.28125 -11.3125 C 5.03125 -11.488281 5.851562 -11.4375 6.75 -11.15625 C 7.65625 -10.882812 8.4375 -10.445312 9.09375 -9.84375 C 10.195312 -8.84375 11.546875 -8.101562 13.140625 -7.625 C 14.742188 -7.144531 16.3125 -7.054688 17.84375 -7.359375 C 19.375 -7.660156 20.539062 -8.460938 21.34375 -9.765625 C 21.894531 -10.816406 21.984375 -11.769531 21.609375 -12.625 C 21.234375 -13.476562 20.539062 -14.378906 19.53125 -15.328125 C 18.6875 -16.179688 17.585938 -17.242188 16.234375 -18.515625 C 14.878906 -19.796875 13.445312 -21.1875 11.9375 -22.6875 C 10.4375 -24.195312 9.035156 -25.765625 7.734375 -27.390625 C 6.429688 -29.015625 5.367188 -30.628906 4.546875 -32.234375 C 3.722656 -33.835938 3.3125 -35.34375 3.3125 -36.75 C 3.007812 -40.550781 3.660156 -43.65625 5.265625 -46.0625 C 6.867188 -48.46875 9.5 -50.367188 13.15625 -51.765625 C 14.207031 -52.171875 15.707031 -52.472656 17.65625 -52.671875 C 19.613281 -52.867188 21.726562 -52.914062 24 -52.8125 C 26.28125 -52.71875 28.457031 -52.367188 30.53125 -51.765625 C 32.613281 -51.171875 34.285156 -50.242188 35.546875 -48.984375 C 36.390625 -48.035156 37.125 -47.070312 37.75 -46.09375 C 38.382812 -45.125 38.25 -44.1875 37.34375 -43.28125 C 36.695312 -42.375 35.972656 -41.992188 35.171875 -42.140625 C 34.367188 -42.296875 33.488281 -42.675781 32.53125 -43.28125 C 32.53125 -43.28125 32.289062 -43.429688 31.8125 -43.734375 C 31.34375 -44.035156 30.742188 -44.347656 30.015625 -44.671875 C 29.285156 -44.992188 28.53125 -45.191406 27.75 -45.265625 C 26.976562 -45.347656 26.242188 -45.160156 25.546875 -44.703125 C 24.898438 -44.304688 24.4375 -43.691406 24.15625 -42.859375 C 23.882812 -42.035156 23.847656 -40.898438 24.046875 -39.453125 C 24.296875 -37.347656 25.347656 -35.289062 27.203125 -33.28125 C 27.503906 -32.9375 28.117188 -32.273438 29.046875 -31.296875 C 29.972656 -30.316406 30.984375 -29.25 32.078125 -28.09375 C 33.179688 -26.945312 34.195312 -25.894531 35.125 -24.9375 C 36.050781 -23.988281 36.640625 -23.390625 36.890625 -23.140625 C 38.796875 -20.941406 39.972656 -18.800781 40.421875 -16.71875 C 40.878906 -14.632812 40.816406 -12.675781 40.234375 -10.84375 C 39.660156 -9.019531 38.734375 -7.378906 37.453125 -5.921875 C 36.179688 -4.472656 34.726562 -3.273438 33.09375 -2.328125 C 31.46875 -1.378906 29.851562 -0.703125 28.25 -0.296875 Z M 28.25 -0.296875 "/></g></g></g><g fill="#216164" fill-opacity="1"><g transform="translate(180.085192, 154.949138)"><g><path d="M 15.484375 0.078125 C 13.929688 -0.0234375 12.789062 -0.425781 12.0625 -1.125 C 11.332031 -1.820312 10.644531 -3.148438 10 -5.109375 C 9.238281 -7.265625 8.609375 -9.554688 8.109375 -11.984375 C 7.609375 -14.410156 7.132812 -16.976562 6.6875 -19.6875 C 6.238281 -23.445312 5.722656 -27.09375 5.140625 -30.625 C 4.566406 -34.15625 3.851562 -37.648438 3 -41.109375 C 2.40625 -43.804688 2.171875 -45.78125 2.296875 -47.03125 C 2.421875 -48.289062 2.707031 -49.242188 3.15625 -49.890625 C 3.957031 -50.691406 5.097656 -51.21875 6.578125 -51.46875 C 8.054688 -51.71875 9.894531 -51.816406 12.09375 -51.765625 C 12.195312 -51.765625 12.320312 -51.765625 12.46875 -51.765625 C 12.625 -51.765625 12.875 -51.742188 13.21875 -51.703125 C 14.070312 -51.742188 14.976562 -51.742188 15.9375 -51.703125 C 17.988281 -51.492188 19.488281 -50.976562 20.4375 -50.15625 C 21.382812 -49.332031 22.132812 -47.941406 22.6875 -45.984375 C 22.84375 -45.484375 22.941406 -44.984375 22.984375 -44.484375 C 23.035156 -43.984375 23.085938 -43.484375 23.140625 -42.984375 C 23.191406 -42.785156 23.21875 -42.570312 23.21875 -42.34375 C 23.21875 -42.113281 23.242188 -41.898438 23.296875 -41.703125 C 23.992188 -37.441406 24.84375 -33.21875 25.84375 -29.03125 C 26.84375 -24.851562 27.867188 -20.660156 28.921875 -16.453125 C 29.328125 -15.554688 29.664062 -14.707031 29.9375 -13.90625 C 30.21875 -13.101562 30.484375 -12.578125 30.734375 -12.328125 C 30.984375 -12.078125 31.257812 -12.300781 31.5625 -13 C 31.90625 -14.101562 32.253906 -15.191406 32.609375 -16.265625 C 32.960938 -17.347656 33.3125 -18.4375 33.65625 -19.53125 C 34.207031 -20.9375 34.695312 -22.085938 35.125 -22.984375 C 35.550781 -23.890625 36.539062 -24.316406 38.09375 -24.265625 C 39.195312 -24.117188 39.945312 -23.679688 40.34375 -22.953125 C 40.75 -22.222656 41.050781 -21.382812 41.25 -20.4375 C 41.300781 -20.082031 41.515625 -19.429688 41.890625 -18.484375 C 42.265625 -17.535156 42.675781 -16.535156 43.125 -15.484375 C 43.832031 -14.023438 44.4375 -13.242188 44.9375 -13.140625 C 45.4375 -13.046875 45.882812 -13.773438 46.28125 -15.328125 C 47.03125 -18.128906 47.617188 -20.394531 48.046875 -22.125 C 48.472656 -23.851562 48.835938 -25.351562 49.140625 -26.625 C 49.441406 -27.90625 49.753906 -29.195312 50.078125 -30.5 C 50.398438 -31.800781 50.800781 -33.414062 51.28125 -35.34375 C 51.757812 -37.28125 52.425781 -39.800781 53.28125 -42.90625 C 53.726562 -44.507812 54.050781 -45.785156 54.25 -46.734375 C 54.445312 -47.691406 54.695312 -48.644531 55 -49.59375 C 55.15625 -50.394531 55.546875 -51.007812 56.171875 -51.4375 C 56.796875 -51.863281 57.507812 -51.972656 58.3125 -51.765625 C 59.8125 -51.515625 60.835938 -50.613281 61.390625 -49.0625 C 61.742188 -47.507812 61.492188 -45.707031 60.640625 -43.65625 C 60.335938 -42.101562 59.859375 -40.160156 59.203125 -37.828125 C 58.554688 -35.503906 57.832031 -32.9375 57.03125 -30.125 C 56.226562 -27.320312 55.398438 -24.441406 54.546875 -21.484375 C 53.703125 -18.535156 52.898438 -15.679688 52.140625 -12.921875 C 51.390625 -10.171875 50.789062 -7.691406 50.34375 -5.484375 C 50.144531 -4.378906 49.816406 -3.25 49.359375 -2.09375 C 48.910156 -0.945312 47.910156 -0.222656 46.359375 0.078125 C 45.304688 0.222656 44.328125 -0.140625 43.421875 -1.015625 C 42.523438 -1.890625 41.75 -2.878906 41.09375 -3.984375 C 40.445312 -5.085938 39.972656 -5.9375 39.671875 -6.53125 C 38.816406 -8.382812 38.113281 -9.320312 37.5625 -9.34375 C 37.019531 -9.375 36.5 -8.664062 36 -7.21875 C 35.789062 -6.8125 35.6875 -6.457031 35.6875 -6.15625 C 34.988281 -4.351562 34.265625 -3 33.515625 -2.09375 C 32.765625 -1.195312 31.820312 -0.609375 30.6875 -0.328125 C 29.5625 -0.0546875 28.023438 0.078125 26.078125 0.078125 C 25.921875 0.078125 25.367188 0.078125 24.421875 0.078125 C 23.472656 0.078125 22.382812 0.0859375 21.15625 0.109375 C 19.925781 0.140625 18.785156 0.15625 17.734375 0.15625 C 16.679688 0.15625 15.929688 0.128906 15.484375 0.078125 Z M 15.484375 0.078125 "/></g></g></g><g fill="#216164" fill-opacity="1"><g transform="translate(245.006708, 154.949138)"><g><path d="M 15.9375 0 C 14.375 -0.101562 12.800781 -0.113281 11.21875 -0.03125 C 9.644531 0.0390625 8.207031 -0.046875 6.90625 -0.296875 C 5.601562 -0.546875 4.550781 -1.144531 3.75 -2.09375 C 2.957031 -3.050781 2.5625 -4.609375 2.5625 -6.765625 C 2.507812 -10.171875 2.441406 -13.875 2.359375 -17.875 C 2.285156 -21.882812 2.25 -25.617188 2.25 -29.078125 C 2.25 -33.535156 2.273438 -37.179688 2.328125 -40.015625 C 2.378906 -42.847656 2.617188 -45.039062 3.046875 -46.59375 C 3.472656 -48.144531 4.195312 -49.257812 5.21875 -49.9375 C 6.25 -50.613281 7.664062 -51 9.46875 -51.09375 C 11.269531 -51.195312 13.597656 -51.207031 16.453125 -51.125 C 19.304688 -51.050781 22.789062 -51.066406 26.90625 -51.171875 C 27.601562 -51.171875 28.460938 -51.171875 29.484375 -51.171875 C 30.515625 -51.171875 31.519531 -51.09375 32.5 -50.9375 C 33.476562 -50.789062 34.289062 -50.46875 34.9375 -49.96875 C 35.59375 -49.46875 35.921875 -48.664062 35.921875 -47.5625 C 35.867188 -46.664062 35.503906 -46.023438 34.828125 -45.640625 C 34.148438 -45.265625 33.382812 -45.050781 32.53125 -45 C 31.6875 -44.957031 30.910156 -44.910156 30.203125 -44.859375 C 29.554688 -44.753906 28.867188 -44.640625 28.140625 -44.515625 C 27.410156 -44.390625 26.695312 -44.253906 26 -44.109375 C 24.789062 -43.910156 23.882812 -43.644531 23.28125 -43.3125 C 22.6875 -42.988281 22.300781 -42.515625 22.125 -41.890625 C 21.945312 -41.265625 21.835938 -40.347656 21.796875 -39.140625 L 21.640625 -28.484375 C 21.535156 -26.128906 22.613281 -24.847656 24.875 -24.640625 C 24.96875 -24.597656 25.085938 -24.5625 25.234375 -24.53125 C 25.390625 -24.507812 25.492188 -24.472656 25.546875 -24.421875 C 26.953125 -24.472656 28.03125 -24.160156 28.78125 -23.484375 C 29.53125 -22.804688 29.929688 -22.03125 29.984375 -21.15625 C 30.035156 -20.28125 29.722656 -19.503906 29.046875 -18.828125 C 28.367188 -18.148438 27.273438 -17.8125 25.765625 -17.8125 C 24.972656 -17.757812 24.195312 -17.566406 23.4375 -17.234375 C 22.6875 -16.910156 22.265625 -16.328125 22.171875 -15.484375 C 22.066406 -13.328125 22.0625 -11.695312 22.15625 -10.59375 C 22.257812 -9.488281 22.570312 -8.695312 23.09375 -8.21875 C 23.625 -7.75 24.460938 -7.410156 25.609375 -7.203125 C 26.765625 -7.003906 28.347656 -6.734375 30.359375 -6.390625 C 30.910156 -6.335938 31.4375 -6.3125 31.9375 -6.3125 C 32.4375 -6.3125 32.9375 -6.257812 33.4375 -6.15625 C 34.488281 -6.0625 35.1875 -5.632812 35.53125 -4.875 C 35.882812 -4.125 35.9375 -3.347656 35.6875 -2.546875 C 35.4375 -1.753906 34.863281 -1.179688 33.96875 -0.828125 C 32.863281 -0.328125 31.671875 -0.0859375 30.390625 -0.109375 C 29.117188 -0.140625 27.90625 -0.128906 26.75 -0.078125 C 24.945312 -0.078125 23.144531 -0.0625 21.34375 -0.03125 C 19.539062 -0.0078125 17.738281 0 15.9375 0 Z M 15.9375 0 "/></g></g></g><g fill="#216164" fill-opacity="1"><g transform="translate(283.929613, 154.949138)"><g><path d="M 15.9375 0 C 14.375 -0.101562 12.800781 -0.113281 11.21875 -0.03125 C 9.644531 0.0390625 8.207031 -0.046875 6.90625 -0.296875 C 5.601562 -0.546875 4.550781 -1.144531 3.75 -2.09375 C 2.957031 -3.050781 2.5625 -4.609375 2.5625 -6.765625 C 2.507812 -10.171875 2.441406 -13.875 2.359375 -17.875 C 2.285156 -21.882812 2.25 -25.617188 2.25 -29.078125 C 2.25 -33.535156 2.273438 -37.179688 2.328125 -40.015625 C 2.378906 -42.847656 2.617188 -45.039062 3.046875 -46.59375 C 3.472656 -48.144531 4.195312 -49.257812 5.21875 -49.9375 C 6.25 -50.613281 7.664062 -51 9.46875 -51.09375 C 11.269531 -51.195312 13.597656 -51.207031 16.453125 -51.125 C 19.304688 -51.050781 22.789062 -51.066406 26.90625 -51.171875 C 27.601562 -51.171875 28.460938 -51.171875 29.484375 -51.171875 C 30.515625 -51.171875 31.519531 -51.09375 32.5 -50.9375 C 33.476562 -50.789062 34.289062 -50.46875 34.9375 -49.96875 C 35.59375 -49.46875 35.921875 -48.664062 35.921875 -47.5625 C 35.867188 -46.664062 35.503906 -46.023438 34.828125 -45.640625 C 34.148438 -45.265625 33.382812 -45.050781 32.53125 -45 C 31.6875 -44.957031 30.910156 -44.910156 30.203125 -44.859375 C 29.554688 -44.753906 28.867188 -44.640625 28.140625 -44.515625 C 27.410156 -44.390625 26.695312 -44.253906 26 -44.109375 C 24.789062 -43.910156 23.882812 -43.644531 23.28125 -43.3125 C 22.6875 -42.988281 22.300781 -42.515625 22.125 -41.890625 C 21.945312 -41.265625 21.835938 -40.347656 21.796875 -39.140625 L 21.640625 -28.484375 C 21.535156 -26.128906 22.613281 -24.847656 24.875 -24.640625 C 24.96875 -24.597656 25.085938 -24.5625 25.234375 -24.53125 C 25.390625 -24.507812 25.492188 -24.472656 25.546875 -24.421875 C 26.953125 -24.472656 28.03125 -24.160156 28.78125 -23.484375 C 29.53125 -22.804688 29.929688 -22.03125 29.984375 -21.15625 C 30.035156 -20.28125 29.722656 -19.503906 29.046875 -18.828125 C 28.367188 -18.148438 27.273438 -17.8125 25.765625 -17.8125 C 24.972656 -17.757812 24.195312 -17.566406 23.4375 -17.234375 C 22.6875 -16.910156 22.265625 -16.328125 22.171875 -15.484375 C 22.066406 -13.328125 22.0625 -11.695312 22.15625 -10.59375 C 22.257812 -9.488281 22.570312 -8.695312 23.09375 -8.21875 C 23.625 -7.75 24.460938 -7.410156 25.609375 -7.203125 C 26.765625 -7.003906 28.347656 -6.734375 30.359375 -6.390625 C 30.910156 -6.335938 31.4375 -6.3125 31.9375 -6.3125 C 32.4375 -6.3125 32.9375 -6.257812 33.4375 -6.15625 C 34.488281 -6.0625 35.1875 -5.632812 35.53125 -4.875 C 35.882812 -4.125 35.9375 -3.347656 35.6875 -2.546875 C 35.4375 -1.753906 34.863281 -1.179688 33.96875 -0.828125 C 32.863281 -0.328125 31.671875 -0.0859375 30.390625 -0.109375 C 29.117188 -0.140625 27.90625 -0.128906 26.75 -0.078125 C 24.945312 -0.078125 23.144531 -0.0625 21.34375 -0.03125 C 19.539062 -0.0078125 17.738281 0 15.9375 0 Z M 15.9375 0 "/></g></g></g><g fill="#216164" fill-opacity="1"><g transform="translate(322.852518, 154.949138)"><g><path d="M 18.703125 0.375 C 16.753906 0.226562 15.28125 -0.0546875 14.28125 -0.484375 C 13.28125 -0.910156 12.601562 -1.648438 12.25 -2.703125 C 11.894531 -3.753906 11.71875 -5.28125 11.71875 -7.28125 C 11.820312 -10.238281 11.847656 -13.21875 11.796875 -16.21875 C 11.742188 -19.226562 11.71875 -22.1875 11.71875 -25.09375 C 11.769531 -27.75 11.796875 -30.492188 11.796875 -33.328125 C 11.796875 -36.160156 11.820312 -38.953125 11.875 -41.703125 C 11.925781 -42.253906 11.773438 -42.703125 11.421875 -43.046875 C 11.066406 -43.398438 10.613281 -43.578125 10.0625 -43.578125 C 8.207031 -43.628906 6.703125 -43.691406 5.546875 -43.765625 C 4.398438 -43.835938 3.578125 -44.125 3.078125 -44.625 C 2.578125 -45.132812 2.300781 -45.988281 2.25 -47.1875 C 2.195312 -48.382812 2.347656 -49.269531 2.703125 -49.84375 C 3.054688 -50.425781 3.554688 -50.769531 4.203125 -50.875 C 5.109375 -51.070312 6.507812 -51.207031 8.40625 -51.28125 C 10.3125 -51.351562 12.367188 -51.398438 14.578125 -51.421875 C 16.785156 -51.453125 18.851562 -51.453125 20.78125 -51.421875 C 22.707031 -51.398438 24.144531 -51.390625 25.09375 -51.390625 C 25.800781 -51.390625 26.804688 -51.390625 28.109375 -51.390625 C 29.410156 -51.390625 30.710938 -51.390625 32.015625 -51.390625 C 33.316406 -51.390625 34.242188 -51.390625 34.796875 -51.390625 C 36.742188 -51.441406 38.101562 -51.242188 38.875 -50.796875 C 39.65625 -50.347656 40.117188 -49.804688 40.265625 -49.171875 C 40.421875 -48.546875 40.523438 -48.007812 40.578125 -47.5625 C 40.671875 -46.15625 40.289062 -45.1875 39.4375 -44.65625 C 38.59375 -44.132812 37.59375 -43.875 36.4375 -43.875 L 33.515625 -43.8125 C 32.960938 -43.8125 32.507812 -43.609375 32.15625 -43.203125 C 31.8125 -42.804688 31.660156 -42.332031 31.703125 -41.78125 C 32.054688 -37.070312 32.359375 -32.363281 32.609375 -27.65625 C 32.859375 -22.945312 32.832031 -18.210938 32.53125 -13.453125 C 32.582031 -9.992188 32.554688 -7.257812 32.453125 -5.25 C 32.359375 -3.25 31.921875 -1.796875 31.140625 -0.890625 C 30.367188 0.00390625 29.015625 0.515625 27.078125 0.640625 C 25.148438 0.765625 22.359375 0.675781 18.703125 0.375 Z M 18.703125 0.375 "/></g></g></g></svg>