<svg xmlns="http://www.w3.org/2000/svg" xmlns:xlink="http://www.w3.org/1999/xlink" width="500" zoomAndPan="magnify" viewBox="0 0 375 374.999991" height="500" preserveAspectRatio="xMidYMid meet" version="1.0"><defs><clipPath id="81e1b76712"><path d="M 95 172 L 296.976562 172 L 296.976562 229 L 95 229 Z M 95 172 " clip-rule="nonzero"/></clipPath><clipPath id="633864237e"><path d="M 166 70.621094 L 190 70.621094 L 190 103 L 166 103 Z M 166 70.621094 " clip-rule="nonzero"/></clipPath></defs><path fill="#89dcde" d="M 179.03125 104.347656 C 179.03125 104.347656 166.078125 119.378906 177.304688 127.5 C 188.535156 135.617188 207.351562 126.433594 205.636719 115.058594 C 203.921875 103.683594 186.636719 100.722656 179.03125 104.347656 Z M 179.03125 104.347656 " fill-opacity="1" fill-rule="evenodd"/><path fill="#ffc9e8" d="M 271.625 213.007812 C 271.625 213.007812 244.328125 248.9375 237.9375 276.75 C 232.585938 281.242188 146.039062 286.941406 146.039062 286.941406 C 146.039062 286.941406 164.695312 227 271.625 213.007812 Z M 271.625 213.007812 " fill-opacity="1" fill-rule="evenodd"/><path fill="#89dcde" d="M 159.097656 218.773438 C 200.179688 207.925781 229.527344 138.976562 281.878906 188.464844 C 281.878906 188.464844 256.980469 186.628906 254.730469 188.523438 C 252.484375 190.417969 193.6875 212.054688 190.308594 212.355469 C 186.925781 212.65625 159.097656 218.773438 159.097656 218.773438 Z M 159.097656 218.773438 " fill-opacity="1" fill-rule="evenodd"/><path fill="#89dcde" d="M 145.140625 200.558594 C 183.824219 182.976562 215.59375 107.722656 260.773438 157.941406 C 260.773438 157.941406 243.640625 154.703125 241.738281 156.949219 C 239.839844 159.195312 178.859375 190.460938 175.578125 191.324219 C 172.296875 192.191406 145.140625 200.558594 145.140625 200.558594 Z M 145.140625 200.558594 " fill-opacity="1" fill-rule="evenodd"/><g clip-path="url(#81e1b76712)"><path fill="#182f3e" d="M 125.417969 172.851562 C 125.324219 172.902344 92.585938 190.335938 111.113281 212.050781 C 127.386719 231.121094 162.433594 217.988281 189.160156 207.96875 C 199.75 204 210.386719 200.515625 221.03125 196.742188 C 246.277344 187.785156 290.390625 164.777344 296.882812 206.277344 C 292.335938 177.78125 238.203125 200.019531 223.96875 205.066406 C 213.371094 208.824219 202.777344 212.273438 192.234375 216.222656 C 78.851562 258.722656 78.121094 178.707031 125.417969 172.851562 Z M 125.417969 172.851562 " fill-opacity="1" fill-rule="nonzero"/></g><path fill="#182f3e" d="M 275.652344 178.246094 C 275.597656 178.175781 257.871094 154.855469 232.570312 163.800781 C 222.625 167.316406 209.433594 175.464844 195.640625 183.984375 C 175.019531 196.722656 147.996094 218.5625 121.859375 204.3125 C 135.300781 208.535156 167.507812 191.007812 191.011719 176.488281 C 205.253906 167.691406 218.867188 159.285156 229.632812 155.476562 C 247.792969 149.050781 268.5 155.304688 275.652344 178.246094 Z M 275.652344 178.246094 " fill-opacity="1" fill-rule="nonzero"/><path fill="#182f3e" d="M 254.992188 145.199219 C 254.921875 145.128906 230.320312 120.839844 202.597656 141.085938 C 190.191406 150.148438 179.984375 159.289062 171.253906 167.101562 C 161.769531 175.589844 143.792969 187.65625 132.273438 183.132812 C 140.074219 181.539062 153.234375 171.410156 165.382812 160.539062 C 174.242188 152.601562 184.609375 143.324219 197.414062 133.96875 C 216.023438 120.375 244.9375 121.964844 254.992188 145.199219 Z M 254.992188 145.199219 " fill-opacity="1" fill-rule="nonzero"/><path fill="#182f3e" d="M 188.464844 140.855469 C 222.578125 109.53125 168.261719 89.875 165.789062 128.335938 C 150.078125 82.464844 244.660156 88.523438 194.957031 146.800781 Z M 188.464844 140.855469 " fill-opacity="1" fill-rule="nonzero"/><path fill="#182f3e" d="M 283.109375 207.664062 C 283.109375 207.664062 258.921875 257.414062 254.777344 294.726562 C 254.777344 294.726562 180.152344 304.402344 142.835938 294.726562 C 142.835938 294.726562 127.605469 261.882812 127.292969 234.269531 C 127.292969 234.269531 142.664062 280.386719 149.230469 284.535156 C 160.109375 285.746094 224.890625 289.71875 245.621094 283.5 C 252.878906 258.449219 258.921875 240.140625 283.109375 207.664062 Z M 283.109375 207.664062 " fill-opacity="1" fill-rule="evenodd"/><path fill="#182f3e" d="M 184.308594 290.734375 C 178.429688 282.472656 167.898438 234.417969 167.898438 234.417969 C 166.515625 250.484375 175.496094 291.425781 175.496094 291.425781 Z M 184.308594 290.734375 " fill-opacity="1" fill-rule="evenodd"/><path fill="#182f3e" d="M 212.636719 290.90625 C 212.636719 290.90625 220.929688 234.074219 232.847656 212.308594 C 232.847656 212.308594 219.375 276.746094 221.273438 293.15625 L 214.621094 293.585938 Z M 212.636719 290.90625 " fill-opacity="1" fill-rule="evenodd"/><g clip-path="url(#633864237e)"><path fill="#182f3e" d="M 167.5 76.671875 C 166.179688 75.40625 166.140625 73.3125 167.40625 71.996094 C 168.675781 70.679688 170.765625 70.640625 172.082031 71.90625 C 172.121094 71.941406 185.363281 84.824219 189.054688 98.480469 C 189.527344 100.246094 188.476562 102.0625 186.710938 102.535156 C 184.945312 103.007812 183.128906 101.960938 182.65625 100.191406 C 179.4375 88.28125 167.53125 76.707031 167.5 76.671875 Z M 167.5 76.671875 " fill-opacity="1" fill-rule="nonzero"/></g></svg>