<svg width="32" height="32" viewBox="0 0 32 32" fill="none" xmlns="http://www.w3.org/2000/svg">
<path fill-rule="evenodd" clip-rule="evenodd" d="M11.1665 9.33333C11.1665 6.66396 13.3304 4.5 15.9998 4.5C18.6692 4.5 20.8331 6.66396 20.8331 9.33333C20.8331 12.0027 18.6692 14.1667 15.9998 14.1667C13.3304 14.1667 11.1665 12.0027 11.1665 9.33333ZM15.9998 3.5C12.7782 3.5 10.1665 6.11167 10.1665 9.33333C10.1665 12.555 12.7782 15.1667 15.9998 15.1667C19.2215 15.1667 21.8331 12.555 21.8331 9.33333C21.8331 6.11167 19.2215 3.5 15.9998 3.5ZM7.1665 24.4444C7.1665 22.254 8.8946 20.5 10.9998 20.5H20.9998C23.1051 20.5 24.8332 22.254 24.8332 24.4444V26.1667H7.1665V24.4444ZM10.9998 19.5C8.3186 19.5 6.1665 21.7257 6.1665 24.4444V26.6667C6.1665 26.9428 6.39036 27.1667 6.6665 27.1667H25.3332C25.6093 27.1667 25.8332 26.9428 25.8332 26.6667V24.4444C25.8332 21.7257 23.6811 19.5 20.9998 19.5H10.9998Z" fill="black"/>
</svg>